<svg xmlns="http://www.w3.org/2000/svg" width="276.95" height="258.461" viewBox="0 0 276.95 258.461">
  <g id="Group_111" data-name="Group 111" transform="translate(-317.342 -937.787)">
    <circle id="Ellipse_6" data-name="Ellipse 6" cx="71.007" cy="71.007" r="71.007" transform="translate(317.342 937.787)" fill="#c4e3e4"/>
    <g id="account" transform="translate(337 984.375)">
      <path id="Path_176" data-name="Path 176" d="M52.089,66.3A9.132,9.132,0,0,0,42.9,75.489a9.189,9.189,0,1,0,18.378,0A9.132,9.132,0,0,0,52.089,66.3Zm0,13.39a3.938,3.938,0,0,1,0-7.876c2.1,0,4.2,1.575,4.2,3.676A4.318,4.318,0,0,1,52.089,79.69Z" transform="translate(67.106 82.3)"/>
      <path id="Path_177" data-name="Path 177" d="M39.267,70.359h1.313A26.78,26.78,0,1,0,13.8,43.58,26.429,26.429,0,0,0,39.267,70.359Zm1.313-5.251h-.788A20.365,20.365,0,0,1,26.14,59.332a17.309,17.309,0,0,1,14.44-8.139,16.645,16.645,0,0,1,14.44,8.139A20.23,20.23,0,0,1,40.579,65.108Zm-.525-20.741a5.776,5.776,0,1,1,5.776-5.776A6.008,6.008,0,0,1,40.054,44.367Zm.525-22.316A21.626,21.626,0,0,1,62.108,43.58a22.034,22.034,0,0,1-3.413,11.552,21.371,21.371,0,0,0-11.552-8.139,11,11,0,1,0-13.915.263,23.081,23.081,0,0,0-10.764,7.876A20.479,20.479,0,0,1,19.051,43.58,21.457,21.457,0,0,1,40.579,22.051Z" transform="translate(19.806 1.84)"/>
      <path id="Path_178" data-name="Path 178" d="M19.051,58.3h167.24a5.266,5.266,0,0,0,5.251-5.251v-6.3a5.266,5.266,0,0,0-5.251-5.251H19.051A5.266,5.266,0,0,0,13.8,46.751v6.3A5.266,5.266,0,0,0,19.051,58.3Zm0-11.815h167.24v6.3H19.051Z" transform="translate(19.806 41.989)"/>
      <path id="Path_179" data-name="Path 179" d="M186.291,67.1a5.266,5.266,0,0,0,5.251-5.251v-6.3a5.266,5.266,0,0,0-5.251-5.251H19.051A5.266,5.266,0,0,0,13.8,55.551v6.3A5.266,5.266,0,0,0,19.051,67.1ZM19.051,55.288h167.24v6.3H19.051Z" transform="translate(19.806 56.293)"/>
      <path id="Path_180" data-name="Path 180" d="M91.415,70.4A16.015,16.015,0,1,0,107.43,86.415,16.079,16.079,0,0,0,91.415,70.4Zm0,26.78a10.764,10.764,0,1,1,10.764-10.764A10.988,10.988,0,0,1,91.415,97.18Z" transform="translate(119.932 88.964)"/>
      <path id="Path_181" data-name="Path 181" d="M249.653,216.06H216.31l1.313-3.676,6.826,3.151a2.4,2.4,0,0,0,2.888-.525l8.926-8.927a2.4,2.4,0,0,0,.525-2.888l-2.888-6.826,6.826-2.625a2.3,2.3,0,0,0,1.575-2.363v-12.6a2.659,2.659,0,0,0-1.575-2.363L233.9,173.79l3.151-6.826a2.4,2.4,0,0,0-.525-2.888L227.6,155.15a5.74,5.74,0,0,0-1.313-.788V24.665A14.958,14.958,0,0,0,211.322,9.7H19.665A15.129,15.129,0,0,0,4.7,24.665V169.59a14.958,14.958,0,0,0,14.965,14.965H77.95V199.52h-4.2A11.206,11.206,0,0,0,62.46,210.809a9.706,9.706,0,0,0,1.575,5.513H21.24a2.625,2.625,0,0,0,0,5.251H249.653a2.48,2.48,0,0,0,2.625-2.625,2.7,2.7,0,0,0-2.625-2.888Zm-18.378-49.621-3.413,7.614a2.9,2.9,0,0,0,0,2.1,2.367,2.367,0,0,0,1.575,1.575l7.876,2.888v8.927l-7.876,2.888a2.731,2.731,0,0,0-1.575,3.413l3.413,7.614-6.3,6.564-7.614-3.413a2.887,2.887,0,0,0-3.676,1.575L210.8,216.06H201.87l-2.888-7.876a2.925,2.925,0,0,0-3.676-1.575l-7.614,3.413-6.3-6.3,3.413-7.614a2.523,2.523,0,0,0-1.575-3.413l-7.876-2.888v-8.927l7.876-2.888a2.731,2.731,0,0,0,1.575-3.413l-3.413-8.139,6.3-6.3,7.614,3.413a2.8,2.8,0,0,0,3.676-1.575l2.888-7.876h9.189l2.888,7.876a2.925,2.925,0,0,0,3.676,1.575l7.614-3.413Zm-10.5-10.239-3.151,1.313L216.31,154.1h4.463ZM10.213,24.4a9.692,9.692,0,0,1,9.714-9.714H211.322a9.864,9.864,0,0,1,9.714,9.714V148.849H10.476V24.4Zm0,144.925V154.1H196.357l-1.313,3.413-6.826-3.151a2.4,2.4,0,0,0-2.888.525l-8.926,8.927a2.4,2.4,0,0,0-.525,2.888l3.15,6.826-6.826,2.625a2.3,2.3,0,0,0-1.575,2.363v.263H19.665c-5.251.263-9.452-3.938-9.452-9.452ZM83.2,184.292h61.96v14.965H83.2Zm-9.452,20.216h80.863a5.941,5.941,0,0,1,6.038,6.039,5.546,5.546,0,0,1-5.513,5.513H73.224a5.384,5.384,0,0,1-5.513-5.513A6.107,6.107,0,0,1,73.749,204.508Zm81.126-5.251h-4.2V184.292h19.691v7.089a2.659,2.659,0,0,0,1.575,2.363l6.826,2.625-3.15,6.826a2.4,2.4,0,0,0,.525,2.888l8.926,8.927a2.4,2.4,0,0,0,2.888.525l6.826-3.151,1.313,3.676H164.589a9.706,9.706,0,0,0,1.575-5.513,11.373,11.373,0,0,0-11.289-11.289Z" transform="translate(5.014 -9.7)"/>
      <path id="Path_182" data-name="Path 182" d="M3.625,93.551H15.44a2.625,2.625,0,0,0,0-5.251H3.625a2.625,2.625,0,0,0,0,5.251Z" transform="translate(-1 118.06)"/>
      <path id="Path_183" data-name="Path 183" d="M41.225,24.251H145.98a2.48,2.48,0,0,0,2.625-2.625A2.48,2.48,0,0,0,145.98,19H41.225A2.48,2.48,0,0,0,38.6,21.625,2.631,2.631,0,0,0,41.225,24.251Z" transform="translate(60.116 5.416)"/>
      <path id="Path_184" data-name="Path 184" d="M41.225,31.251H145.98a2.48,2.48,0,0,0,2.625-2.625A2.48,2.48,0,0,0,145.98,26H41.225A2.48,2.48,0,0,0,38.6,28.625,2.631,2.631,0,0,0,41.225,31.251Z" transform="translate(60.116 16.794)"/>
      <path id="Path_185" data-name="Path 185" d="M41.225,38.251H145.98a2.625,2.625,0,0,0,0-5.251H41.225A2.48,2.48,0,0,0,38.6,35.625,2.631,2.631,0,0,0,41.225,38.251Z" transform="translate(60.116 28.172)"/>
    </g>
  </g>
</svg>
