<svg xmlns="http://www.w3.org/2000/svg" width="253" height="258.461" viewBox="0 0 253 258.461">
  <g id="Group_112" data-name="Group 112" transform="translate(-242.342 -217.646)">
    <circle id="Ellipse_10" data-name="Ellipse 10" cx="71.007" cy="71.007" r="71.007" transform="translate(242.342 217.646)" fill="#c4e3e4"/>
    <g id="data" transform="translate(283 264.233)">
      <g id="Group_62" data-name="Group 62" transform="translate(4)">
        <g id="Group_61" data-name="Group 61" transform="translate(0)">
          <path id="Path_186" data-name="Path 186" d="M162.905,0H21.656A17.677,17.677,0,0,0,4,17.656v113a17.656,17.656,0,0,0,13.246,17.1l1.766-6.836a10.594,10.594,0,0,1-7.949-10.262v-113A10.594,10.594,0,0,1,21.656,7.062H162.905A10.594,10.594,0,0,1,173.5,17.656v3.531h7.062V17.656A17.677,17.677,0,0,0,162.905,0Z" transform="translate(-4)"/>
        </g>
      </g>
      <g id="Group_64" data-name="Group 64" transform="translate(18.882 14.522)">
        <g id="Group_63" data-name="Group 63" transform="translate(0 0)">
          <rect id="Rectangle_77" data-name="Rectangle 77" width="6.378" height="6.378"/>
        </g>
      </g>
      <g id="Group_66" data-name="Group 66" transform="translate(31.638 14.522)">
        <g id="Group_65" data-name="Group 65" transform="translate(0 0)">
          <rect id="Rectangle_78" data-name="Rectangle 78" width="8.504" height="6.378"/>
        </g>
      </g>
      <g id="Group_68" data-name="Group 68" transform="translate(46.518 14.522)">
        <g id="Group_67" data-name="Group 67" transform="translate(0 0)">
          <rect id="Rectangle_79" data-name="Rectangle 79" width="6.378" height="6.378"/>
        </g>
      </g>
      <g id="Group_70" data-name="Group 70" transform="translate(39.312 56.5)">
        <g id="Group_69" data-name="Group 69">
          <path id="Path_187" data-name="Path 187" d="M256,266.753,222.5,233.259a48.841,48.841,0,0,0,4.2-9.916h5.615v-7.062h-4.1a47.579,47.579,0,0,0-2.966-25.3V156.25h-7.062v22.487a49.7,49.7,0,0,0-7.062-7.331V142.125h-7.062v24.344A49.115,49.115,0,0,0,197,163.1V128h-7.062v32.953a48.894,48.894,0,0,0-7.062-.992v-24.9h-7.062v24.9a48.893,48.893,0,0,0-7.062.992V149.187h-7.062V163.1a49.136,49.136,0,0,0-7.062,3.372V145.656h-7.062v25.75a49.7,49.7,0,0,0-7.062,7.331V152.719h-7.062v38.257a47.579,47.579,0,0,0-2.966,25.3H84v7.062h47.989a49.335,49.335,0,0,0,75.724,26.3l32.7,32.7a3.531,3.531,0,0,0,4.993,0L256,271.746A3.531,3.531,0,0,0,256,266.753Zm-76.652-15.16a42.375,42.375,0,1,1,42.375-42.375A42.42,42.42,0,0,1,179.343,251.593Zm63.562,23.257-29.7-29.7a50.03,50.03,0,0,0,5.314-5.887l29.991,29.991Z" transform="translate(-84 -128)"/>
        </g>
      </g>
      <g id="Group_72" data-name="Group 72" transform="translate(99.343 102.406)">
        <g id="Group_71" data-name="Group 71">
          <path id="Path_188" data-name="Path 188" d="M255.312,232a35.312,35.312,0,1,0,35.312,35.312A35.312,35.312,0,0,0,255.312,232Zm0,63.562a28.25,28.25,0,0,1-24.429-14.125h48.858A28.25,28.25,0,0,1,255.312,295.562Zm-27.321-21.187a27.992,27.992,0,0,1,9.665-29.08v22.017h7.062v-26.17a28.12,28.12,0,0,1,7.063-1.836v28.006h7.062V239.306a28.119,28.119,0,0,1,7.062,1.836v26.17h7.062V245.3a27.992,27.992,0,0,1,9.665,29.08Z" transform="translate(-220 -232)"/>
        </g>
      </g>
      <g id="Group_74" data-name="Group 74" transform="translate(25.187 28.25)">
        <g id="Group_73" data-name="Group 73">
          <path id="Path_189" data-name="Path 189" d="M210.905,64H69.656A17.677,17.677,0,0,0,52,81.656v113a17.677,17.677,0,0,0,17.656,17.656h45.906v-7.062H69.656a10.594,10.594,0,0,1-10.594-10.594v-113A10.594,10.594,0,0,1,69.656,71.062H210.905A10.594,10.594,0,0,1,221.5,81.656v113a10.6,10.6,0,0,1-2.648,7.006l5.3,4.672a17.634,17.634,0,0,0,4.414-11.678v-113A17.677,17.677,0,0,0,210.905,64Z" transform="translate(-52 -64)"/>
        </g>
      </g>
      <g id="Group_76" data-name="Group 76" transform="translate(40.141 42.16)">
        <g id="Group_75" data-name="Group 75" transform="translate(0 0)">
          <rect id="Rectangle_80" data-name="Rectangle 80" width="6.378" height="6.378"/>
        </g>
      </g>
      <g id="Group_78" data-name="Group 78" transform="translate(52.898 42.16)">
        <g id="Group_77" data-name="Group 77" transform="translate(0 0)">
          <rect id="Rectangle_81" data-name="Rectangle 81" width="8.504" height="6.378"/>
        </g>
      </g>
      <g id="Group_80" data-name="Group 80" transform="translate(67.779 42.16)">
        <g id="Group_79" data-name="Group 79" transform="translate(0 0)">
          <rect id="Rectangle_82" data-name="Rectangle 82" width="6.378" height="6.378"/>
        </g>
      </g>
      <g id="Group_82" data-name="Group 82" transform="translate(46.518 116.569)">
        <g id="Group_81" data-name="Group 81" transform="translate(0 0)">
          <rect id="Rectangle_83" data-name="Rectangle 83" width="6.378" height="21.26"/>
        </g>
      </g>
      <g id="Group_84" data-name="Group 84" transform="translate(61.401 95.309)">
        <g id="Group_83" data-name="Group 83" transform="translate(0 0)">
          <rect id="Rectangle_84" data-name="Rectangle 84" width="6.378" height="42.52"/>
        </g>
      </g>
      <g id="Group_86" data-name="Group 86" transform="translate(74.158 105.938)">
        <g id="Group_85" data-name="Group 85" transform="translate(0 0)">
          <rect id="Rectangle_85" data-name="Rectangle 85" width="8.504" height="31.89"/>
        </g>
      </g>
    </g>
  </g>
</svg>
