<svg xmlns="http://www.w3.org/2000/svg" width="234.141" height="251.915" viewBox="0 0 234.141 251.915">
  <g id="Group_115" data-name="Group 115" transform="translate(-242.342 -1489.221)">
    <circle id="Ellipse_13" data-name="Ellipse 13" cx="71.007" cy="71.007" r="71.007" transform="translate(242.342 1489.221)" fill="#c4e3e4"/>
    <g id="agreement" transform="translate(281.34 1531.184)">
      <path id="Path_199" data-name="Path 199" d="M168.89,92.32,146.17,46.208,169.731,34.9,166.8,28.84,140.314,41.63a3.366,3.366,0,0,0-1.548,4.51l1.717,3.366c-4.847.438-13.194-.438-26.927-5.991A32.245,32.245,0,0,0,82.219,46.41,48.367,48.367,0,0,0,70.842,57.551a35.409,35.409,0,0,1-9.222-4.174L62.428,52a3.371,3.371,0,0,0-1.245-4.611L36.376,33.216,33.01,39.039,54.922,51.56,28.938,96.191,7.026,83.67,3.66,89.493l24.705,14.2a3.366,3.366,0,0,0,4.578-1.245l.808-1.38,6.429,4.746-.707,1.043a8.987,8.987,0,0,0-1.447,6.732,9.088,9.088,0,0,0,3.8,5.924l1.582,1.077a9.121,9.121,0,0,0,5.15,1.616,6.093,6.093,0,0,0,.774,0A8.717,8.717,0,0,0,52.7,127.19l1.582,1.111a8.987,8.987,0,0,0,5.116,1.582,9.226,9.226,0,0,0,1.683,0,8.817,8.817,0,0,0,1.885-.606,9.458,9.458,0,0,0,2.659,2.895l1.582,1.077a9.021,9.021,0,0,0,5.116,1.616h.808a8.785,8.785,0,0,0,3.534,4.948l1.548,1.077a8.987,8.987,0,0,0,5.116,1.582,9.155,9.155,0,0,0,7.54-3.938l.942-1.38,9.088,5.486a10.033,10.033,0,0,0,13.8-3.433,9.66,9.66,0,0,0,1.245-3.366,9.794,9.794,0,0,0,2.76.4,10.1,10.1,0,0,0,8.65-4.88,10.367,10.367,0,0,0,1.279-3.534,9.222,9.222,0,0,0,2.726.4,10.1,10.1,0,0,0,8.617-4.88,9.8,9.8,0,0,0,1.212-3.164l.5.3a10.087,10.087,0,0,0,11.881-16.19,33.255,33.255,0,0,1,8.684-9.458l1.919,3.871a3.35,3.35,0,0,0,4.477,1.548l26.489-12.79-2.928-6.059ZM50.647,114.434a2.39,2.39,0,0,1-3.366.606L45.7,113.962a2.39,2.39,0,0,1-.606-3.366l4.948-7.169a2.356,2.356,0,0,1,1.515-.976,2.39,2.39,0,0,1,1.784.4l1.548,1.077a2.12,2.12,0,0,1,.976,1.515,2.255,2.255,0,0,1-.37,1.784Zm11.006,7.607a2.356,2.356,0,0,1-1.515.976,2.558,2.558,0,0,1-1.784-.37l-1.582-1.077a2.39,2.39,0,0,1-.606-3.366l6.732-9.862a2.255,2.255,0,0,1,1.515-.976h.438a2.423,2.423,0,0,1,1.346.4l1.548,1.077a2.457,2.457,0,0,1,1.01,1.515,2.356,2.356,0,0,1-.4,1.784Zm12.925,4.948a2.39,2.39,0,0,1-3.366.606l-1.582-1.077A2.457,2.457,0,0,1,68.655,125a2.558,2.558,0,0,1,.37-1.784l4.88-7.068a2.423,2.423,0,0,1,3.366-.639l1.582,1.111a2.39,2.39,0,0,1,.606,3.366Zm14,3.366-3,4.106a2.457,2.457,0,0,1-3.366.606l-1.582-1.077a2.39,2.39,0,0,1-.606-3.366l3-4.342a2.39,2.39,0,0,1,3.366-.606l1.548,1.077a2.39,2.39,0,0,1,.64,3.366Zm61.46-16.829a3.351,3.351,0,0,1-4.578,1.144l-20.2-12.083-3.366,5.756,11.478,6.732a3.336,3.336,0,0,1-3.433,5.722l-14.339-8.65-3.366,5.756,8.617,5.183a3.568,3.568,0,0,1,1.515,2.053,3.366,3.366,0,0,1-4.948,3.669l-14.339-8.65-3.366,5.756,8.65,5.251a3.366,3.366,0,0,1-3.366,5.655l-9.559-5.789a9.525,9.525,0,0,0,.236-4.039,9.088,9.088,0,0,0-3.77-5.857l-1.683-.875a8.886,8.886,0,0,0-3.635-1.447,9.525,9.525,0,0,0,0-1.952,8.919,8.919,0,0,0-3.8-5.857l-1.548-1.077a9.054,9.054,0,0,0-5.924-1.548,8.987,8.987,0,0,0-3.669-4.948l-1.582-1.077a9.021,9.021,0,0,0-6.732-1.447,10.3,10.3,0,0,0-1.885.572,9.357,9.357,0,0,0-2.659-2.861l-1.582-1.077a9.121,9.121,0,0,0-12.656,2.322l-.337.5-6.732-5.049L58.288,59.3a42.141,42.141,0,0,0,8.718,4.174,43.016,43.016,0,0,0-6.563,16.392A7.607,7.607,0,0,0,66.8,87c6.126,1.616,17.7-.841,26.186-13.463l55.873,35.039a3.324,3.324,0,0,1,1.178,4.578Zm-1.952-13.463L123.316,84.545A26.927,26.927,0,0,0,132.37,76l-5.857-3.366a21.642,21.642,0,0,1-9.828,7.708L93.7,65.932a3.381,3.381,0,0,0-4.712,1.178c-5.621,9.929-13.463,13.463-18.411,13.463a4.981,4.981,0,0,1-3.366-.875,50.488,50.488,0,0,1,18.58-27.836,25.379,25.379,0,0,1,25.042-2.289c13.8,5.621,24.739,7.64,32.581,6.126L159.4,88.18a40.693,40.693,0,0,0-11.309,11.881Z" transform="translate(0 65.865)"/>
      <path id="Path_200" data-name="Path 200" d="M0,0H7.472V6.732H0Z" transform="translate(171.08 143.814) rotate(-26.181)"/>
      <path id="Path_201" data-name="Path 201" d="M146.634,85.146V27.927a3.366,3.366,0,0,0-.976-2.39L122.1,1.976A3.366,3.366,0,0,0,119.707,1H18.732A6.732,6.732,0,0,0,12,7.732v80.78h6.732V7.732h97.61V24.561a6.732,6.732,0,0,0,6.732,6.732H139.9V85.146ZM123.073,24.561V12.478l12.083,12.083Z" transform="translate(19.731 0)"/>
      <path id="Path_202" data-name="Path 202" d="M22,40.659A33.659,33.659,0,1,0,55.659,7,33.659,33.659,0,0,0,22,40.659Zm60.585,0A26.927,26.927,0,1,1,55.659,13.732,26.927,26.927,0,0,1,82.585,40.659Z" transform="translate(43.39 14.195)"/>
      <path id="Path_203" data-name="Path 203" d="M31.65,25.959l-4.78,4.78,8.347,8.314a3.366,3.366,0,0,0,4.746,0L61.4,17.645,56.624,13,37.607,32.051Z" transform="translate(54.911 28.39)"/>
    </g>
  </g>
</svg>
