<svg xmlns="http://www.w3.org/2000/svg" width="255.478" height="258.461" viewBox="0 0 255.478 258.461">
  <g id="Group_113" data-name="Group 113" transform="translate(-242.342 -641.504)">
    <circle id="Ellipse_11" data-name="Ellipse 11" cx="71.007" cy="71.007" r="71.007" transform="translate(242.342 641.504)" fill="#c4e3e4"/>
    <g id="migration" transform="translate(285 687.145)">
      <path id="Path_190" data-name="Path 190" d="M96.112,120.41V106.68a10.31,10.31,0,0,0-10.3-10.3V89.517a10.31,10.31,0,0,0,10.3-10.3V65.489a10.31,10.31,0,0,0-10.3-10.3V48.326a10.31,10.31,0,0,0,10.3-10.3V24.3A10.31,10.31,0,0,0,85.814,14H10.3A10.31,10.31,0,0,0,0,24.3v13.73a10.31,10.31,0,0,0,10.3,10.3v6.865A10.31,10.31,0,0,0,0,65.489v13.73a10.31,10.31,0,0,0,10.3,10.3v6.865A10.31,10.31,0,0,0,0,106.68v13.73a10.31,10.31,0,0,0,10.3,10.3H85.814A10.31,10.31,0,0,0,96.112,120.41ZM6.865,38.028V24.3A3.434,3.434,0,0,1,10.3,20.865H85.814A3.434,3.434,0,0,1,89.247,24.3v13.73a3.434,3.434,0,0,1-3.433,3.433H10.3A3.434,3.434,0,0,1,6.865,38.028Zm10.3,10.3H78.949v6.865H17.163ZM6.865,79.219V65.489A3.434,3.434,0,0,1,10.3,62.056H85.814a3.434,3.434,0,0,1,3.433,3.433v13.73a3.434,3.434,0,0,1-3.433,3.433H10.3A3.434,3.434,0,0,1,6.865,79.219Zm10.3,10.3H78.949v6.865H17.163ZM6.865,120.41V106.68a3.434,3.434,0,0,1,3.433-3.433H85.814a3.434,3.434,0,0,1,3.433,3.433v13.73a3.434,3.434,0,0,1-3.433,3.433H10.3A3.434,3.434,0,0,1,6.865,120.41Z" transform="translate(0 34.057)"/>
      <path id="Path_191" data-name="Path 191" d="M130.112,38.028V24.3a10.31,10.31,0,0,0-10.3-10.3H44.3A10.31,10.31,0,0,0,34,24.3v13.73a10.31,10.31,0,0,0,10.3,10.3v6.865A10.31,10.31,0,0,0,34,65.489v13.73a10.31,10.31,0,0,0,10.3,10.3v6.865A10.31,10.31,0,0,0,34,106.68v13.73a10.31,10.31,0,0,0,10.3,10.3h75.517a10.31,10.31,0,0,0,10.3-10.3V106.68a10.31,10.31,0,0,0-10.3-10.3V89.517a10.31,10.31,0,0,0,10.3-10.3V65.489a10.31,10.31,0,0,0-10.3-10.3V48.326A10.31,10.31,0,0,0,130.112,38.028Zm-89.247,0V24.3A3.434,3.434,0,0,1,44.3,20.865h75.517a3.434,3.434,0,0,1,3.433,3.433v13.73a3.434,3.434,0,0,1-3.433,3.433H44.3A3.434,3.434,0,0,1,40.865,38.028Zm82.382,68.652v13.73a3.434,3.434,0,0,1-3.433,3.433H44.3a3.434,3.434,0,0,1-3.433-3.433V106.68a3.434,3.434,0,0,1,3.433-3.433h75.517A3.434,3.434,0,0,1,123.247,106.68Zm-10.3-10.3H51.163V89.517h61.786Zm10.3-30.893v13.73a3.434,3.434,0,0,1-3.433,3.433H44.3a3.434,3.434,0,0,1-3.433-3.433V65.489A3.434,3.434,0,0,1,44.3,62.056h75.517A3.434,3.434,0,0,1,123.247,65.489Zm-10.3-10.3H51.163V48.326h61.786Z" transform="translate(82.708 34.057)"/>
      <path id="Path_192" data-name="Path 192" d="M130.14,13.731v-4.1L147.691,20.6,130.14,31.563v-4.1a3.429,3.429,0,0,0-3.433-3.433H16.865v6.865h106.41v6.865a3.433,3.433,0,0,0,5.252,2.911l27.461-17.163a3.433,3.433,0,0,0,0-5.822L128.527.522a3.431,3.431,0,0,0-5.252,2.911V10.3H10v6.865H126.708a3.429,3.429,0,0,0,3.433-3.433Z" transform="translate(24.326 0)"/>
      <path id="Path_193" data-name="Path 193" d="M36.461,77.461v4.1L18.91,70.6,36.461,59.629v4.1a3.429,3.429,0,0,0,3.433,3.433H149.736V60.3H43.326V53.433a3.435,3.435,0,0,0-5.255-2.911L10.61,67.685a3.435,3.435,0,0,0,0,5.822L38.074,90.67a3.433,3.433,0,0,0,5.252-2.911V80.894H156.6V74.028H39.893A3.429,3.429,0,0,0,36.461,77.461Z" transform="translate(21.893 121.629)"/>
      <path id="Path_194" data-name="Path 194" d="M52,53h6.865v6.865H52Z" transform="translate(126.494 128.927)"/>
      <path id="Path_195" data-name="Path 195" d="M56,53h6.865v6.865H56Z" transform="translate(136.224 128.927)"/>
      <path id="Path_196" data-name="Path 196" d="M8,7h6.865v6.865H8Z" transform="translate(19.461 17.029)"/>
      <path id="Path_197" data-name="Path 197" d="M4,7h6.865v6.865H4Z" transform="translate(9.73 17.029)"/>
    </g>
  </g>
</svg>
