<svg xmlns="http://www.w3.org/2000/svg" width="231.336" height="246.195" viewBox="0 0 231.336 246.195">
  <g id="Group_115" data-name="Group 115" transform="translate(-242.342 -1489.221)">
    <circle id="Ellipse_13" data-name="Ellipse 13" cx="71.007" cy="71.007" r="71.007" transform="translate(242.342 1489.221)" fill="#c4e3e4"/>
    <g id="compliant_1_" data-name="compliant (1)" transform="translate(273.552 1537.904)">
      <g id="Group_121" data-name="Group 121" transform="translate(11.448 0)">
        <path id="Path_255" data-name="Path 255" d="M143.435,227.508h16.572a2.893,2.893,0,1,0,0-5.786H143.435a2.893,2.893,0,0,0,0,5.786Z" transform="translate(-90.742 -136.19)"/>
        <path id="Path_256" data-name="Path 256" d="M143.435,263.856h67.3a2.893,2.893,0,1,0,0-5.786h-67.3a2.893,2.893,0,1,0,0,5.786Z" transform="translate(-90.742 -158.516)"/>
        <path id="Path_257" data-name="Path 257" d="M289.336,294.417H271.393a2.893,2.893,0,0,0,0,5.786h17.943a2.893,2.893,0,0,0,0-5.786Z" transform="translate(-169.339 -180.842)"/>
        <path id="Path_258" data-name="Path 258" d="M196.393,19.425,158.944.709a6.782,6.782,0,0,0-6.036,0l-37.45,18.716h0a6.714,6.714,0,0,0-3.733,6.039v5.384H71.068a2.893,2.893,0,1,0,0,5.786h40.657v8.8a73.7,73.7,0,0,0,.949,12.056H64.141a2.893,2.893,0,0,0,0,5.786h49.772a56.6,56.6,0,0,0,2.876,8.235H64.141a2.893,2.893,0,0,0,0,5.786h55.606a56.911,56.911,0,0,0,3.342,5.043q1.2,1.616,2.536,3.193H92.285a2.893,2.893,0,0,0,0,5.786h38.859A129.056,129.056,0,0,0,152.4,106.954a6.737,6.737,0,0,0,7.061,0c.3-.181.586-.361.877-.541v70.261h-75.7v-5.395a2.893,2.893,0,1,0-5.786,0V190.76a.965.965,0,0,1-.964.964H18.2a.966.966,0,0,1-.964-.964V149.087a.966.966,0,0,1,.964-.964H77.884a.966.966,0,0,1,.964.964v8.69a2.893,2.893,0,0,0,5.786,0v-8.69a6.719,6.719,0,0,0-.221-1.682h47.031a2.893,2.893,0,0,0,0-5.786H75.338v-8.235h56.107a2.893,2.893,0,1,0,0-5.786H75.217a27.081,27.081,0,0,0-2.093-8.235h29.963a2.893,2.893,0,0,0,0-5.786H69.731a27.245,27.245,0,0,0-34.48-7.559V36.634H57.567a2.893,2.893,0,1,0,0-5.786H34.287a4.827,4.827,0,0,0-4.822,4.822v74.477a27.221,27.221,0,0,0-8.72,19.976v12.214H18.2a6.759,6.759,0,0,0-6.751,6.751V190.76a6.759,6.759,0,0,0,6.751,6.751H77.884a6.759,6.759,0,0,0,6.751-6.751v-8.3H161.3a4.827,4.827,0,0,0,4.822-4.822V102.7c10.3-6.892,17.428-13.325,22.642-20.356,7.646-10.311,11.363-22.384,11.363-36.906V25.464a6.714,6.714,0,0,0-3.733-6.039ZM57.979,142.336H38.1V130.123a9.938,9.938,0,0,1,19.875,0v12.214ZM26.531,130.123a21.51,21.51,0,1,1,43.021,0v12.214H63.766V130.123a15.724,15.724,0,0,0-31.448,0v12.214H26.531ZM194.34,45.433c0,27.8-14.5,42.265-37.9,56.585a.985.985,0,0,1-1.021,0c-23.4-14.32-37.9-28.78-37.9-56.585V25.464a.959.959,0,0,1,.534-.863l37.45-18.716a.968.968,0,0,1,.862,0L193.806,24.6a.959.959,0,0,1,.534.863v19.97Z" transform="translate(-11.448 0)"/>
        <path id="Path_259" data-name="Path 259" d="M338.9,52.13a29.278,29.278,0,1,0,27.581,39.108,2.893,2.893,0,1,0-5.45-1.943,23.5,23.5,0,1,1,.99-12.024,2.893,2.893,0,1,0,5.7-1.012A29.223,29.223,0,0,0,338.9,52.13Z" transform="translate(-194.6 -32.02)"/>
        <path id="Path_260" data-name="Path 260" d="M374.967,106.153l-11.4,11.4-6.629-6.629a2.893,2.893,0,1,0-4.092,4.091l8.674,8.675a2.894,2.894,0,0,0,4.092,0l13.445-13.445a2.893,2.893,0,0,0-4.092-4.091Z" transform="translate(-220.627 -64.683)"/>
      </g>
    </g>
  </g>
</svg>
