<svg xmlns="http://www.w3.org/2000/svg" xmlns:xlink="http://www.w3.org/1999/xlink" width="236.872" height="248.494" viewBox="0 0 236.872 248.494">
  <defs>
    <clipPath id="clip-path">
      <path id="path135" d="M0-682.665H223.484v223.484H0Z" transform="translate(0 682.665)"/>
    </clipPath>
  </defs>
  <g id="Group_114" data-name="Group 114" transform="translate(-242.342 -1065.362)">
    <circle id="Ellipse_12" data-name="Ellipse 12" cx="71.007" cy="71.007" r="71.007" transform="translate(242.342 1065.362)" fill="#c4e3e4"/>
    <g id="g129" transform="translate(255.729 1773.037)">
      <g id="g131" transform="translate(0 -682.665)">
        <g id="g133" transform="translate(0 0)" clip-path="url(#clip-path)">
          <g id="g139" transform="translate(-0.007 12.482)">
            <path id="path141" d="M-461.55-327.086H-647.535a18.535,18.535,0,0,1-16.218-9.363,18.535,18.535,0,0,1,0-18.726l92.993-161.068a18.536,18.536,0,0,1,16.218-9.363,18.536,18.536,0,0,1,16.218,9.363l92.993,161.068a18.536,18.536,0,0,1,0,18.727A18.536,18.536,0,0,1-461.55-327.086ZM-554.542-519.06a12.055,12.055,0,0,0-10.547,6.089L-658.082-351.9a12.055,12.055,0,0,0,0,12.179,12.055,12.055,0,0,0,10.547,6.09H-461.55A12.055,12.055,0,0,0-451-339.723a12.055,12.055,0,0,0,0-12.179L-544-512.971A12.055,12.055,0,0,0-554.542-519.06Z" transform="translate(666.292 525.608)"/>
          </g>
          <g id="g143" transform="translate(122.459 63.25)">
            <path id="path145" d="M62.676,116.757H3.775a3.274,3.274,0,0,1,0-6.547h53.23L-9.562-5.091a3.274,3.274,0,0,1,1.2-4.472,3.274,3.274,0,0,1,4.472,1.2l69.4,120.211a3.274,3.274,0,0,1-2.835,4.911Z" transform="translate(10.002 10.002)"/>
          </g>
          <g id="g147" transform="translate(25.074 39.017)">
            <path id="path149" d="M-127.751-300.235h-58.9a3.274,3.274,0,0,1-2.835-1.637,3.274,3.274,0,0,1,0-3.274l83.4-144.445a3.274,3.274,0,0,1,2.835-1.637h0a3.274,3.274,0,0,1,2.835,1.637l6.631,11.485a3.274,3.274,0,0,1-1.2,4.472,3.274,3.274,0,0,1-4.472-1.2l-3.8-6.575-77.725,134.623h53.233a3.274,3.274,0,0,1,3.274,3.274A3.274,3.274,0,0,1-127.751-300.235Z" transform="translate(189.928 451.227)"/>
          </g>
          <g id="g151" transform="translate(97.971 165.967)">
            <path id="path153" d="M-60.358-42.064a13.786,13.786,0,0,1,13.77,13.77,13.786,13.786,0,0,1-13.77,13.771A13.786,13.786,0,0,1-74.129-28.293,13.786,13.786,0,0,1-60.358-42.064Zm0,20.994a7.231,7.231,0,0,0,7.223-7.224,7.231,7.231,0,0,0-7.223-7.223,7.231,7.231,0,0,0-7.224,7.223A7.232,7.232,0,0,0-60.358-21.07Z" transform="translate(74.129 42.064)"/>
          </g>
          <g id="g155" transform="translate(98.161 85.49)">
            <path id="path157" d="M-35.462-140.046h-7.357a6.771,6.771,0,0,1-6.763-6.417l-3.131-59.483a6.8,6.8,0,0,1,1.85-5.018,6.8,6.8,0,0,1,4.913-2.111h13.618a6.8,6.8,0,0,1,4.913,2.111,6.8,6.8,0,0,1,1.85,5.017L-28.7-146.463A6.771,6.771,0,0,1-35.462-140.046Zm-10.487-66.48,2.906,59.72,7.582.214a.225.225,0,0,0,.225-.213l3.131-59.483Z" transform="translate(52.722 213.074)"/>
          </g>
        </g>
      </g>
    </g>
  </g>
</svg>
