<svg xmlns="http://www.w3.org/2000/svg" xmlns:xlink="http://www.w3.org/1999/xlink" width="213.999" height="219.547" viewBox="0 0 213.999 219.547">
  <defs>
    <clipPath id="clip-path">
      <path id="path2205" d="M0-682.665H164.341v164.341H0Z" transform="translate(0 682.665)"/>
    </clipPath>
  </defs>
  <g id="Group_120" data-name="Group 120" transform="translate(-242.342 -1489.221)">
    <circle id="Ellipse_13" data-name="Ellipse 13" cx="71.007" cy="71.007" r="71.007" transform="translate(242.342 1489.221)" fill="#c4e3e4"/>
    <g id="g2199" transform="translate(292 2227.092)">
      <g id="g2201" transform="translate(0 -682.665)">
        <g id="g2203" clip-path="url(#clip-path)">
          <g id="g2209" transform="translate(115.854 0)">
            <path id="path2211" d="M-97.463-95.056h-21.462a9.451,9.451,0,0,1-9.44-9.44v-21.462a2.407,2.407,0,0,1,1.486-2.224,2.407,2.407,0,0,1,2.623.522l28.495,28.495a2.407,2.407,0,0,1,.522,2.623A2.407,2.407,0,0,1-97.463-95.056Zm-26.087-25.09v15.65a4.631,4.631,0,0,0,4.625,4.625h15.65Z" transform="translate(128.365 128.365)"/>
          </g>
          <g id="g2213" transform="translate(58.894 52.073)">
            <path id="path2215" d="M56.653-5.185H-7.593A2.407,2.407,0,0,1-10-7.593,2.407,2.407,0,0,1-7.593-10H56.653A2.407,2.407,0,0,1,59.06-7.593,2.407,2.407,0,0,1,56.653-5.185Z" transform="translate(10 10)"/>
          </g>
          <g id="g2217" transform="translate(58.894 69.916)">
            <path id="path2219" d="M56.653-5.185H-7.593A2.407,2.407,0,0,1-10-7.593,2.407,2.407,0,0,1-7.593-10H56.653A2.407,2.407,0,0,1,59.06-7.593,2.407,2.407,0,0,1,56.653-5.185Z" transform="translate(10 10)"/>
          </g>
          <g id="g2221" transform="translate(58.894 87.758)">
            <path id="path2223" d="M56.653-5.185H-7.593A2.407,2.407,0,0,1-10-7.593,2.407,2.407,0,0,1-7.593-10H56.653A2.407,2.407,0,0,1,59.06-7.593,2.407,2.407,0,0,1,56.653-5.185Z" transform="translate(10 10)"/>
          </g>
          <g id="g2225" transform="translate(105.198 139.831)">
            <path id="path2227" d="M13.27-40.68H-7.593A2.407,2.407,0,0,1-10-43.088,2.407,2.407,0,0,1-7.593-45.5H13.27A4.632,4.632,0,0,0,17.9-50.122v-4.22A2.407,2.407,0,0,1,20.3-56.749a2.407,2.407,0,0,1,2.407,2.407v4.22A9.452,9.452,0,0,1,13.27-40.68Z" transform="translate(10 56.749)"/>
          </g>
          <g id="g2229" transform="translate(26.432 11.254)">
            <path id="path2231" d="M13.933,134.646H-47.308a9.452,9.452,0,0,1-9.441-9.441V-.559A9.452,9.452,0,0,1-47.308-10h4.22A2.407,2.407,0,0,1-40.68-7.593a2.407,2.407,0,0,1-2.407,2.407h-4.22A4.632,4.632,0,0,0-51.935-.559V125.205a4.632,4.632,0,0,0,4.627,4.626H13.933a2.407,2.407,0,1,1,0,4.815Z" transform="translate(56.749 10)"/>
          </g>
          <g id="g2233" transform="translate(15.178 118.142)">
            <path id="path2235" d="M92.036,36.2H-.559A9.452,9.452,0,0,1-10,26.758V-7.593A2.407,2.407,0,0,1-7.593-10,2.407,2.407,0,0,1-5.185-7.593v34.35A4.632,4.632,0,0,0-.559,31.384H92.036a4.632,4.632,0,0,0,4.626-4.627V25.351a2.407,2.407,0,0,1,4.815,0v1.407A9.452,9.452,0,0,1,92.036,36.2Z" transform="translate(10 10)"/>
          </g>
          <g id="g2237" transform="translate(15.178 19.695)">
            <path id="path2239" d="M-54.342,82.77a2.407,2.407,0,0,1-2.407-2.407V-.559A9.452,9.452,0,0,1-47.308-10h4.22A2.407,2.407,0,0,1-40.68-7.593a2.407,2.407,0,0,1-2.407,2.407h-4.22A4.632,4.632,0,0,0-51.935-.559V80.363A2.407,2.407,0,0,1-54.342,82.77Z" transform="translate(56.749 10)"/>
          </g>
          <g id="g2241" transform="translate(37.686 0)">
            <path id="path2243" d="M92.036,23.426H-.559A9.452,9.452,0,0,1-10,13.985V-81.547a2.407,2.407,0,0,1,2.407-2.407,2.407,2.407,0,0,1,2.407,2.407V13.985A4.632,4.632,0,0,0-.559,18.612H92.036a4.632,4.632,0,0,0,4.626-4.627V-89.321L69.578-116.405H-.559a4.632,4.632,0,0,0-4.627,4.627v19.74a2.407,2.407,0,0,1-2.407,2.407A2.407,2.407,0,0,1-10-92.038v-19.74A9.452,9.452,0,0,1-.559-121.22H70.575a2.407,2.407,0,0,1,1.7.705L100.772-92.02a2.407,2.407,0,0,1,.705,1.7v104.3A9.452,9.452,0,0,1,92.036,23.426Z" transform="translate(10 121.22)"/>
          </g>
        </g>
      </g>
    </g>
  </g>
</svg>
