<svg xmlns="http://www.w3.org/2000/svg" xmlns:xlink="http://www.w3.org/1999/xlink" width="253.61" height="251.915" viewBox="0 0 253.61 251.915">
  <defs>
    <clipPath id="clip-path">
      <path id="path147" d="M0-682.665H208.952v208.952H0Z" transform="translate(0 682.665)"/>
    </clipPath>
  </defs>
  <g id="Group_114" data-name="Group 114" transform="translate(-242.342 -1065.362)">
    <circle id="Ellipse_12" data-name="Ellipse 12" cx="71.007" cy="71.007" r="71.007" transform="translate(242.342 1065.362)" fill="#c4e3e4"/>
    <g id="g141" transform="translate(287 1790.99)">
      <g id="g143" transform="translate(0 -682.665)">
        <g id="g145" transform="translate(0 0)" clip-path="url(#clip-path)">
          <g id="g151" transform="translate(26.362 166.503)">
            <path id="path153" d="M80.322,17.189H8.082A9.1,9.1,0,0,1-1,8.1V1.589a2.589,2.589,0,1,1,5.178,0V8.1a3.91,3.91,0,0,0,3.9,3.908H80.322a2.589,2.589,0,1,1,0,5.178Z" transform="translate(1 1)"/>
          </g>
          <g id="g155" transform="translate(143.832 13.482)">
            <path id="path157" d="M15.028,93.96a2.589,2.589,0,0,1-2.589-2.589V8.086A3.912,3.912,0,0,0,8.531,4.178H1.589A2.589,2.589,0,1,1,1.589-1H8.531a9.1,9.1,0,0,1,9.086,9.086V91.371A2.589,2.589,0,0,1,15.028,93.96Z" transform="translate(1 1)"/>
          </g>
          <g id="g159" transform="translate(61.559 0.472)">
            <path id="path161" d="M83.863,121.249a2.589,2.589,0,0,1-2.589-2.589V8.086a3.912,3.912,0,0,0-3.908-3.908H1.589A2.589,2.589,0,1,1,1.589-1H77.366a9.1,9.1,0,0,1,9.086,9.086V118.659A2.589,2.589,0,0,1,83.863,121.249Z" transform="translate(1 1)"/>
          </g>
          <g id="g163" transform="translate(12.919 34.741)">
            <path id="path165" d="M-207.381-294.539H-293.06a9.1,9.1,0,0,1-9.086-9.086V-428.89a2.589,2.589,0,0,1,2.589-2.589,2.589,2.589,0,0,1,2.589,2.589v125.265a3.912,3.912,0,0,0,3.908,3.908h85.678a2.589,2.589,0,0,1,2.589,2.589A2.589,2.589,0,0,1-207.381-294.539Z" transform="translate(302.146 431.479)"/>
          </g>
          <g id="g167" transform="translate(105.094 117.541)">
            <path id="path169" d="M-154.249-190.248h-51.718a19.633,19.633,0,0,1-19.611-19.61v-51.718a19.633,19.633,0,0,1,19.611-19.611h51.718a19.633,19.633,0,0,1,19.61,19.611v51.718A19.632,19.632,0,0,1-154.249-190.248Zm-51.718-85.76A14.449,14.449,0,0,0-220.4-261.577v51.718a14.448,14.448,0,0,0,14.432,14.432h51.718a14.448,14.448,0,0,0,14.432-14.432v-51.718a14.448,14.448,0,0,0-14.432-14.432Z" transform="translate(225.578 281.187)"/>
          </g>
          <g id="g171" transform="translate(124.951 132.066)">
            <path id="path173" d="M-120.617-73.05a10.329,10.329,0,0,1,8.094,3.883l15.34,19.115a9.556,9.556,0,0,1,1.219,10.278,9.546,9.546,0,0,1-8.656,5.714l-.237,0h-3.333v16.425a6.484,6.484,0,0,1-6.476,6.476h-11.9a6.484,6.484,0,0,1-6.476-6.476V-34.063h-3.333l-.236,0a9.546,9.546,0,0,1-8.656-5.714,9.556,9.556,0,0,1,1.219-10.279l15.339-19.115A10.329,10.329,0,0,1-120.617-73.05Zm16,33.811a4.453,4.453,0,0,0,3.958-2.713,4.46,4.46,0,0,0-.5-4.782l-.044-.053-15.359-19.139a5.175,5.175,0,0,0-4.055-1.945,5.175,5.175,0,0,0-4.055,1.945l-15.359,19.139-.044.053a4.461,4.461,0,0,0-.5,4.783,4.442,4.442,0,0,0,4.084,2.711h6.032a2.589,2.589,0,0,1,2.589,2.589v19.015a1.3,1.3,0,0,0,1.3,1.3h11.9a1.3,1.3,0,0,0,1.3-1.3V-36.653a2.589,2.589,0,0,1,2.589-2.589h5.957Z" transform="translate(146.229 73.05)"/>
          </g>
          <g id="g175" transform="translate(12.92 0.471)">
            <path id="path177" d="M29.419-73.51H1.589A2.589,2.589,0,0,1-.8-75.11,2.589,2.589,0,0,1-.24-77.932L34.085-112.2a2.589,2.589,0,0,1,2.821-.559,2.589,2.589,0,0,1,1.6,2.392V-82.6A9.1,9.1,0,0,1,29.419-73.51ZM7.848-78.689H29.419A3.911,3.911,0,0,0,33.325-82.6v-21.529Z" transform="translate(1 112.957)"/>
          </g>
          <g id="g179" transform="translate(62.375 18.534)">
            <path id="path181" d="M-78.735-26.179h-28.742a9.288,9.288,0,0,1-9.277-9.277v-.014a9.288,9.288,0,0,1,9.277-9.278h28.742a9.288,9.288,0,0,1,9.277,9.278v.014A9.288,9.288,0,0,1-78.735-26.179Zm-28.742-13.39a4.1,4.1,0,0,0-4.1,4.1v.014a4.1,4.1,0,0,0,4.1,4.1h28.742a4.1,4.1,0,0,0,4.1-4.1v-.014a4.1,4.1,0,0,0-4.1-4.1Z" transform="translate(116.754 44.748)"/>
          </g>
          <g id="g183" transform="translate(36.033 57.842)">
            <path id="path185" d="M86.408,4.178H1.589A2.589,2.589,0,0,1,1.589-1H86.408a2.589,2.589,0,0,1,0,5.178Z" transform="translate(1 1)"/>
          </g>
          <g id="g187" transform="translate(36.033 75.992)">
            <path id="path189" d="M86.408,4.178H1.589A2.589,2.589,0,0,1,1.589-1H86.408a2.589,2.589,0,0,1,0,5.178Z" transform="translate(1 1)"/>
          </g>
          <g id="g191" transform="translate(105.013 94.141)">
            <path id="path193" d="M17.428,4.178H1.589A2.589,2.589,0,0,1,1.589-1H17.428a2.589,2.589,0,1,1,0,5.178Z" transform="translate(1 1)"/>
          </g>
          <g id="g195" transform="translate(36.033 94.141)">
            <path id="path197" d="M56.2,4.178H1.589A2.589,2.589,0,1,1,1.589-1H56.2a2.589,2.589,0,1,1,0,5.178Z" transform="translate(1 1)"/>
          </g>
          <g id="g199" transform="translate(36.033 112.291)">
            <path id="path201" d="M38.574,4.178H1.589A2.589,2.589,0,0,1,1.589-1H38.574a2.589,2.589,0,0,1,0,5.178Z" transform="translate(1 1)"/>
          </g>
          <g id="g203" transform="translate(36.033 130.44)">
            <path id="path205" d="M38.574,4.178H1.589A2.589,2.589,0,0,1,1.589-1H38.574a2.589,2.589,0,0,1,0,5.178Z" transform="translate(1 1)"/>
          </g>
        </g>
      </g>
    </g>
  </g>
</svg>
