<svg xmlns="http://www.w3.org/2000/svg" xmlns:xlink="http://www.w3.org/1999/xlink" width="212.221" height="224.021" viewBox="0 0 212.221 224.021">
  <defs>
    <clipPath id="clip-path">
      <path id="path3669" d="M0-682.665H183.562V-499.1H0Z" transform="translate(0 682.665)"/>
    </clipPath>
  </defs>
  <g id="Group_119" data-name="Group 119" transform="translate(-242.342 -1489.221)">
    <circle id="Ellipse_13" data-name="Ellipse 13" cx="71.007" cy="71.007" r="71.007" transform="translate(242.342 1489.221)" fill="#c4e3e4"/>
    <g id="g3663" transform="translate(271 2212.345)">
      <g id="g3665" transform="translate(0 -682.665)">
        <g id="g3667" clip-path="url(#clip-path)">
          <g id="g3673" transform="translate(32.659 12.547)">
            <path id="path3675" d="M-269.671-401.349h-17.27a2.689,2.689,0,0,1-2.689-2.689,2.689,2.689,0,0,1,2.689-2.689h17.27a2.683,2.683,0,0,0,2.68-2.68V-519.8l-27.465-27.464h-89.959a2.683,2.683,0,0,0-2.68,2.68v14.546a2.689,2.689,0,0,1-2.689,2.689,2.689,2.689,0,0,1-2.689-2.689V-544.58a8.067,8.067,0,0,1,8.058-8.057h91.073a2.689,2.689,0,0,1,1.9.788l29.04,29.039a2.689,2.689,0,0,1,.788,1.9v111.5A8.067,8.067,0,0,1-269.671-401.349Z" transform="translate(392.474 552.637)"/>
          </g>
          <g id="g3677" transform="translate(32.659 44.98)">
            <path id="path3679" d="M15.537,108.856H-1.942A8.067,8.067,0,0,1-10,100.8V-7.311A2.689,2.689,0,0,1-7.311-10,2.689,2.689,0,0,1-4.622-7.311V100.8a2.683,2.683,0,0,0,2.68,2.68H15.537a2.689,2.689,0,1,1,0,5.378Z" transform="translate(10 10)"/>
          </g>
          <g id="g3681" transform="translate(20.044 0)">
            <path id="path3683" d="M-41.612-401.349h-7.246a8.067,8.067,0,0,1-8.058-8.057V-544.58a8.067,8.067,0,0,1,8.058-8.057H63.88a8.169,8.169,0,0,1,8.16,8.159v21.6a2.689,2.689,0,0,1-2.689,2.689,2.689,2.689,0,0,1-2.689-2.689v-21.6a2.785,2.785,0,0,0-2.782-2.781H-48.858a2.683,2.683,0,0,0-2.68,2.68v135.173a2.683,2.683,0,0,0,2.68,2.68h7.246a2.689,2.689,0,0,1,2.689,2.689A2.689,2.689,0,0,1-41.612-401.349Z" transform="translate(56.916 552.637)"/>
          </g>
          <g id="g3685" transform="translate(129.101 15.236)">
            <path id="path3687" d="M21.729,31.728l-29.04-.005A2.689,2.689,0,0,1-10,29.034V0h5.378V26.345l26.352,0Z" transform="translate(10 0)"/>
          </g>
          <g id="g3689" transform="translate(63.303 62.905)">
            <path id="path3691" d="M57.015-4.622H-7.311A2.689,2.689,0,0,1-10-7.311,2.689,2.689,0,0,1-7.311-10H57.015A2.689,2.689,0,0,1,59.7-7.311,2.689,2.689,0,0,1,57.015-4.622Z" transform="translate(10 10)"/>
          </g>
          <g id="g3693" transform="translate(63.303 78.763)">
            <path id="path3695" d="M57.015-4.622H-7.311A2.689,2.689,0,0,1-10-7.311,2.689,2.689,0,0,1-7.311-10H57.015A2.689,2.689,0,0,1,59.7-7.311,2.689,2.689,0,0,1,57.015-4.622Z" transform="translate(10 10)"/>
          </g>
          <g id="g3697" transform="translate(114.921 94.937)">
            <path id="path3699" d="M5.4-4.622H-7.311A2.689,2.689,0,0,1-10-7.311,2.689,2.689,0,0,1-7.311-10H5.4A2.689,2.689,0,0,1,8.086-7.311,2.689,2.689,0,0,1,5.4-4.622Z" transform="translate(10 10)"/>
          </g>
          <g id="g3701" transform="translate(63.303 94.937)">
            <path id="path3703" d="M31.652-4.622H-7.311A2.689,2.689,0,0,1-10-7.311,2.689,2.689,0,0,1-7.311-10H31.652a2.689,2.689,0,0,1,2.689,2.689A2.689,2.689,0,0,1,31.652-4.622Z" transform="translate(10 10)"/>
          </g>
          <g id="g3705" transform="translate(95.466 131.218)">
            <path id="path3707" d="M-7.311-91.977A2.689,2.689,0,0,1-10-94.666v-32.128a2.689,2.689,0,0,1,2.689-2.689,2.689,2.689,0,0,1,2.689,2.689v32.128A2.689,2.689,0,0,1-7.311-91.977Z" transform="translate(10 129.482)"/>
          </g>
          <g id="g3709" transform="translate(83.708 130.86)">
            <path id="path3711" d="M16.206-36.592a2.68,2.68,0,0,1-1.9-.788L4.447-47.236-5.41-37.38a2.689,2.689,0,0,1-3.8,0,2.689,2.689,0,0,1,0-3.8L2.546-52.94a2.689,2.689,0,0,1,3.8,0L18.107-41.182a2.689,2.689,0,0,1,0,3.8A2.681,2.681,0,0,1,16.206-36.592Z" transform="translate(10 53.728)"/>
          </g>
          <g id="g3713" transform="translate(64.383 116.021)">
            <path id="path3715" d="M-207.424-58.052A33.81,33.81,0,0,1-241.2-91.822a33.81,33.81,0,0,1,33.772-33.771,33.81,33.81,0,0,1,33.772,33.771A33.81,33.81,0,0,1-207.424-58.052Zm0-62.163a28.426,28.426,0,0,0-28.394,28.393A28.426,28.426,0,0,0-207.424-63.43,28.426,28.426,0,0,0-179.03-91.822,28.426,28.426,0,0,0-207.424-120.215Z" transform="translate(241.197 125.593)"/>
          </g>
        </g>
      </g>
    </g>
  </g>
</svg>
