<svg xmlns="http://www.w3.org/2000/svg" width="188.837" height="70.493" viewBox="0 0 188.837 70.493">
  <g id="Group_54" data-name="Group 54" transform="translate(-7336.117 -7317.893)">
    <g id="Group_53" data-name="Group 53" transform="translate(7336.117 7317.893)">
      <path id="Path_165" data-name="Path 165" d="M999.521,364.684h0a2.019,2.019,0,0,1,.406-.039h0c.029-.02.029-.02.282-.034.056,0,.142-.005.237-.005v-.563a14.52,14.52,0,0,0,0,29.032v-.7c-.022-.01-.044-.019-.067-.031-.041-.019-.084-.041-.128-.065s-.087-.051-.133-.08a2.7,2.7,0,0,1-.283-.208c-.048-.041-.1-.084-.149-.131-.024-.024-.048-.046-.073-.073s-.051-.051-.077-.078a4.511,4.511,0,0,1-.385-.475A11.033,11.033,0,0,1,997.88,388a1.492,1.492,0,0,0-.5-.942c-.312-.224-.712-.282-1.007-.536a20.28,20.28,0,0,1-1.512-1.64c-.017-.026-.036-.063-.051-.09a3.337,3.337,0,0,1,.126-1.062c.225-.493.225-.493.2-.611a2.489,2.489,0,0,0-.186-.541.62.62,0,0,0-.061-.1.25.25,0,0,0-.189-.123c-.087,0-.186.073-.3.258h-.041a1.593,1.593,0,0,1-1.056-.529l-.084-.075a1.707,1.707,0,0,0-.875-.493l-.09-.012c-.184-.019-.184-.019-.7-.316a.483.483,0,0,0-.247-.06c-.108,0-.217.022-.324.022a.6.6,0,0,1-.135-.015c-.227-.055-.459-.09-.684-.148a2.184,2.184,0,0,1-.206-.086.593.593,0,0,1-.111-.051c-.22-.155-.169-.427-.276-.631-.131-.253-.4-.382-.558-.613-.123-.177-.263-.341-.377-.524a1.219,1.219,0,0,1-.111-.343.707.707,0,0,0-.346-.509,3.162,3.162,0,0,0,.473,1.263c.257.365.2.444.154.517-.005-.005-.565-.729-.642-.889.046,0,.106-.005.15-.005-.633-1.3-.633-1.3-.671-1.306a6.778,6.778,0,0,1,.3-3.79c.036.019.084.043.12.063a.545.545,0,0,0-.027-.189l-.015-.051c-.007-.024-.015-.046-.024-.07v.007a.475.475,0,0,1,0,.049.177.177,0,0,1-.012.065.088.088,0,0,1-.048.053h-.01a.083.083,0,0,1-.06-.026.058.058,0,0,1-.014-.015.166.166,0,0,1-.022-.048.677.677,0,0,1,0-.28l0,0c.014,0,.029.058.034.073.008.033.01.034.015.039s.012.007.027.008a.193.193,0,0,1,.065.012.58.58,0,0,1-.036-.3,4.7,4.7,0,0,1,.172-.707l-.039-.067c.017-.051.039-.119.056-.172a3.528,3.528,0,0,1,.292-.833.029.029,0,0,0,0,.007c.029-.051.056-.1.082-.138.01-.017.021-.034.031-.049a.006.006,0,0,1,0,0c.01-.017.019-.033.029-.048.027-.046.055-.089.08-.13l.046-.072c.135-.208.271-.4.555-.765.019-.027.041-.055.063-.084s.032-.044.051-.068c.032-.041.065-.085.1-.131l.225-.294c.2-.227.474-.531.678-.76a.317.317,0,0,0-.043.063,6.149,6.149,0,0,1,.568-.505c-.111.1-.227.2-.334.3.367-.312.367-.312.568-.5a.794.794,0,0,0-.155.225.661.661,0,0,1,.119-.1.485.485,0,0,0-.048.072c.067-.044.114-.116.2-.133a.331.331,0,0,1,.051.058l.056.005.039,0a.12.12,0,0,0,.07-.02l.032.017c-.029.123-.152.15-.227.225a.381.381,0,0,0,.215-.034c.055-.022.106-.049.16-.07a.407.407,0,0,1,.109-.033c.01.087-.07.162-.036.253.184-.359.275-.538.583-.616.027.036.022.084.046.119.046,0,.087,0,.126,0,.28,0,.362-.053.377-.065l.08-.063c.036-.029.067-.053.092-.072l.026-.019.041-.031a.19.19,0,0,1,.107-.044.186.186,0,0,1,.056.01c-.165.176-.165.176-.077.268.1-.218.348-.287.464-.485l-.036-.008,0-.029a.577.577,0,0,1,.195-.123.172.172,0,0,1-.005-.019.175.175,0,0,0-.005-.017c-.058,0-.114.016-.172.017l-.017-.039c.005-.009.739-1.027,1.282-1.155a.5.5,0,0,1,.082-.012.4.4,0,0,1,.041,0c-.678.4-.678.4-.823.625l.038.029c0,.049,0,.049-.255.459a.8.8,0,0,1,.155.008s-.169.222-.14.3c.121-.108.188-.273.352-.335.145.152-.164.251-.188.4a.2.2,0,0,0,.133.06c.114,0,.21-.136.307-.263.021-.026.039-.051.06-.073a.193.193,0,0,1,.031-.034.382.382,0,0,1,.092-.078c.007-.026.014-.049.021-.07a.363.363,0,0,1,.077-.142.168.168,0,0,1,.125-.056.408.408,0,0,1,.244.124.608.608,0,0,1-.051.115c-.047.051-.135.044-.17.113s.015.135,0,.2a.118.118,0,0,1-.01.027.19.19,0,0,1-.016.02.293.293,0,0,1-.053.058c-.108.094-.108.094-.517.242a.14.14,0,0,0-.077-.024.244.244,0,0,0-.164.089.167.167,0,0,1,.07.024c-.179.275-.483.128-.718.212.029.017.056.031.08.043a.56.56,0,0,0,.1.039.57.57,0,0,0,.244-.008l.07-.012c-.36.384-.36.384-.991.5.063.048.171.005.208.1-.324.241-1.085.805-1.031,1.118.24.019.24.019.259.121.048.294.048.294.087.324a.78.78,0,0,0,.144-.065.421.421,0,0,1,.111-.039.3.3,0,0,1,.039,0,.3.3,0,0,1,.038,0,.443.443,0,0,1,.082.021c.142.049.217.2.363.239a.3.3,0,0,0,.068.008c.068,0,.14-.021.208-.021a.216.216,0,0,1,.162.063h.01a.5.5,0,0,1,.073.005c0,.012,0,.036,0,.048l-.08.065a.481.481,0,0,1,0,.411,2.185,2.185,0,0,1,.381.247.353.353,0,0,1,.043.053c.326-.225.138-.582.213-.869a.329.329,0,0,0,.078-.067c-.031-.1.111-.15.173-.164.285-.067.276-.558.275-.563,0-.123-.133-.2-.125-.324.007-.111.128-.142.159-.236-.159-.2.075-.372.039-.563a4.913,4.913,0,0,1,.628-.094l.032,0a.191.191,0,0,1,.068.015c.225.074.247.113.256.128.029.048.043.063.063.072a.258.258,0,0,0,.087.012c.037,0,.075,0,.113,0a.263.263,0,0,1,.08.012.664.664,0,0,0-.13.445.551.551,0,0,1,.142.056.412.412,0,0,0,.319.068c.029-.008.029-.008.131-.148.046-.061.132-.01.177-.065s-.022-.1,0-.145c.068-.13.108-.2.155-.2.065,0,.145.143.336.485.131.234.131.234.072.317-.041.056-.056.082-.034.111.051.068.152.051.2.119.039.051-.005.109.016.162a.128.128,0,0,0,.032.007.254.254,0,0,0,.06-.012.483.483,0,0,1,.125-.017c.21,0,.362.136.351.164a.1.1,0,0,1-.044.031c-.65.053-1.109.094-1.64.15.577-.058,1.1-.1,1.637-.148-.277.106-.312.119-.387.227l.029.061a.892.892,0,0,1,.428-.177h.065l.226.048c.014.019.029.044.041.065-.066.167-.066.167-.02.28a.537.537,0,0,1-.031.044.332.332,0,0,1-.043.046.5.5,0,0,1-.055.049c-.02.017-.041.034-.063.049s-.07.051-.111.077c-.025.017-.053.034-.08.049s-.085.049-.13.072h0a.828.828,0,0,1-.089.046,2.374,2.374,0,0,1-.353.137c-.027.008-.053.015-.078.02a.748.748,0,0,1-.14.017.193.193,0,0,1-.113-.027c-.917.278-.917.278-1.807,1.2l.174-.107.157-.1.142-.089c.044-.027.087-.055.128-.078l.165-.1.138-.084c.111-.068.193-.114.255-.145h0a.366.366,0,0,1,.041-.021l.036-.016a.133.133,0,0,1,.031-.01l.012,0a.084.084,0,0,1,.073.007l0,0a.049.049,0,0,1,.016.012l.017.016c-.037.183-.169.218-.352.268a.3.3,0,0,0,.181.118c.051.157.073.222.2.283a.249.249,0,0,1,.01-.194l0,0s.005,0,0,.026a.111.111,0,0,0,.072.126.33.33,0,0,0,.147.029.588.588,0,0,0,.09-.007l.021,0,.007,0s0,0,0,0a.007.007,0,0,1,0,.005.258.258,0,0,1-.132.1l.276.078c.086-.128.09-.3.234-.4a.433.433,0,0,1-.09.409.7.7,0,0,1-.067.08.818.818,0,0,1-.077.08.3.3,0,0,1-.043.039c-.029.025-.058.051-.09.075l-.048.036c-.031.024-.065.046-.1.068-.017.012-.034.022-.051.032a1.657,1.657,0,0,1-.2.111,1.1,1.1,0,0,1-.418.131h-.005c.007-.1.007-.1.5-.456V373.1h-.007a.482.482,0,0,1-.148-.031c.008-.019.02-.043.029-.06l-.224.13-.087.05-.379.218-.044.024c-.031.017-.055.031-.075.041a.23.23,0,0,1-.024.01.217.217,0,0,1-.029.013l-.014.005a.064.064,0,0,1-.024,0h-.009c-.3.276-.3.276-.351.8h0l-.015,0-.026.01c-.067.027-.2.1-.329.164-.019.01-.037.02-.056.029-.121.063-.22.118-.222.119-.142.138-.111.345-.2.5a.83.83,0,0,0-.118-.21c-.042.672-.042.672-.092.7,0,0,0-.461-.007-.613l-.1,1.022.065.024c0,.024-.005.056-.009.08l-.065.02c0,.019-.005.046-.008.067.015.015.032.036.046.051h.008c-.312.357-.869.486-.963,1.044-.089.539.725,1.014.219,1.548a.715.715,0,0,1-.3-.562.692.692,0,0,0-.311-.555c-.012,0-.171.014-.369.034-.022,0-.044,0-.066.007l-.189.02-.067.009a2.286,2.286,0,0,0-.49.094c-.005.022-.01.051-.015.072.056.046.131.065.181.119l-.058.049a2.6,2.6,0,0,0-.283-.051c-.029-.005-.062-.009-.094-.012h0c-.031,0-.063-.007-.1-.008s-.067,0-.1,0a.759.759,0,0,0-.159.014.139.139,0,0,0-.026.007.206.206,0,0,0-.075.034,2.456,2.456,0,0,0-.568.706c-.051.169.148.241.152.389.005.232-.2.425-.13.669a1.537,1.537,0,0,0,.756.874.229.229,0,0,0,.116.034.279.279,0,0,0,.131-.037l.048-.029.025-.016a.3.3,0,0,1,.048-.031h0a.472.472,0,0,1,.048-.027.264.264,0,0,1,.108-.025h.012a2.643,2.643,0,0,1,.08-.459,1.047,1.047,0,0,1,.046-.135.623.623,0,0,1,.125-.2.3.3,0,0,1,.067-.053.268.268,0,0,1,.138-.038.384.384,0,0,1,.186.053.479.479,0,0,1,.087.06l.015.012a1.914,1.914,0,0,1-.2.649c.082.171.082.171-.029.539.02,0,.043,0,.063,0,.2,0,.408-.06.611-.06a.717.717,0,0,1,.334.073,1.234,1.234,0,0,1,.125.746c-.055.384.239.42.589.42a3.731,3.731,0,0,1,.573.017l.072.016a.556.556,0,0,1,.133.046.632.632,0,0,1,.056.034,1.375,1.375,0,0,1,.048-.242.858.858,0,0,1,.082-.2,1.14,1.14,0,0,1,1.106-.469,10.687,10.687,0,0,1,1.47.157.545.545,0,0,1,.152.048,1.091,1.091,0,0,1,.2.13c.065.049.124.1.184.159a2.4,2.4,0,0,0,.372.309c.352.212.787.143,1.14.345a7.712,7.712,0,0,1,.669.558V368.913l-.4-.075c-.324-.109-1-1.253-1.015-1.305a.549.549,0,0,1,.058-.374c.085-.128.258-.123.353-.236a.2.2,0,0,0-.123-.292.191.191,0,0,0-.077-.017c-.1,0-.174.08-.265.1-.037-.065-.01-.143-.037-.21-.019-.044-.08-.048-.09-.1,0-.013,0-.017.049-.116.132-.242-.271-.69-.275-.693-.032-.027-.049-.044-.181-.044-.062,0-.145,0-.268.01s-.28.019-.488.034a.671.671,0,0,1-.1-.027.15.15,0,0,1-.024-.008c-.085-.036-.169-.1-.089-.21a5.033,5.033,0,0,1,.529-.176.778.778,0,0,0,.355-.164h-.022c-.07,0-.072,0-.092-.012a4.067,4.067,0,0,1,1.113-.282,1.132,1.132,0,0,1,.137-.008l.051,0,.171,0h.022a.8.8,0,0,0-.208-.025h-.01a0,0,0,0,1,0,0l0,0Zm-11.552,8.228c0,.007-.005.014-.007.021-.019.055-.045.106-.065.16-.036.089-.057.184-.094.273a.057.057,0,0,1-.008.012,1.193,1.193,0,0,1,.154-.505.035.035,0,0,1,.012-.005l0,0a.008.008,0,0,1,.008.007.022.022,0,0,1,0,.019.039.039,0,0,1,0,.02m6.516-3.828a.218.218,0,0,1-.041.041.459.459,0,0,1-.041.032.853.853,0,0,1-.157.092.24.24,0,0,1-.038.017l-.021.007a.1.1,0,0,1-.032.007.027.027,0,0,1-.017-.005c-.022-.015-.016-.1.024-.133a.985.985,0,0,1,.271-.1l.029,0c.037,0,.034.02.022.041m.131-.2c-.063,0-.125-.021-.188-.021l-.027,0a.677.677,0,0,0-.336.179.324.324,0,0,1-.087.065h0c-.005,0-.007-.007-.014-.058s-.008-.046-.1-.053l.156-.251c.017-.027.039-.061.058-.089a1.65,1.65,0,0,1,.189-.227h.007a.009.009,0,0,1,.007,0c.029.017.029.058.06.075s.1.024.148.051l.024.017c.046.036.067.094.106.135.022.024.055.038.079.06a.084.084,0,0,1,.02.08.05.05,0,0,1-.026.022.208.208,0,0,1-.072.01m.258.256c-.015.039-.128.164-.181.164a.021.021,0,0,1-.016-.005.115.115,0,0,1,.012-.131c.027-.034.138-.055.138-.055a.108.108,0,0,1,.022,0,.027.027,0,0,1,.024.008s0,.01,0,.021m2.5,2.9a.16.16,0,0,1-.077.027.289.289,0,0,1-.075,0,.506.506,0,0,1-.15-.046c-.037-.019-.227-.111-.143-.142l.029,0c.128,0,.478.07.45.131a.262.262,0,0,1-.034.031m-3.313,8.663-.042,0-.037-.005-.034-.007-.017-.005c-.048-.017-.092-.14-.015-.171a.167.167,0,0,1,.029,0c.1,0,.213.094.215.138s-.044.055-.1.055m.241-.459a.4.4,0,0,1-.082-.031.156.156,0,0,1-.051-.037c.031-.032.1-.031.1-.094,0-.019-.02-.044-.048-.078a.382.382,0,0,1-.072-.145c-.038-.118-.051-.157-.237-.2-.1-.026-.254-.063-.263-.155,0,0,.005-.005.007-.005a.11.11,0,0,0,.053.015.046.046,0,0,0,.044-.027c-.007-.021-.051-.048-.125-.048a.425.425,0,0,0-.206.061.649.649,0,0,1-.278.085.078.078,0,0,1-.029,0,.026.026,0,0,1-.017-.007.968.968,0,0,1,.364-.22,1.092,1.092,0,0,1,.213-.022.782.782,0,0,1,.164.016c.024,0,.048.01.07.017a.718.718,0,0,1,.208.1c.007,0,.662.763.662.8,0,.019-.056.027-.133.027a1.308,1.308,0,0,1-.341-.046m1.623.577h0c-.01,0-.271-.008-.471-.033-.029,0-.056-.007-.08-.012a.319.319,0,0,0-.053-.007h-.01c-.055,0-.08.049-.106.092-.008.014-.017.027-.026.039a.1.1,0,0,1-.017.019.08.08,0,0,1-.029.019.09.09,0,0,1-.039.008l-.014,0c-.075-.007-.034-.106-.087-.137-.12-.066-.263-.065-.382-.135,0,0,0-.008-.007-.012a.065.065,0,0,1,.024,0,1.532,1.532,0,0,1,.2.025,1.161,1.161,0,0,0,.166.021.053.053,0,0,0,.034-.007.27.27,0,0,0-.089-.29c-.014-.014-.014-.014-.014-.027s.009-.007.024-.012h.017c.143,0,1,.084.957.261-.015.061.034.111.031.169,0,.015-.014.019-.029.022m.746.189a.013.013,0,0,1-.009.007.177.177,0,0,1-.021.008l-.068.014-.037.005h0l-.039.005-.077,0a.271.271,0,0,1-.039,0c-.094-.017-.193-.116-.116-.169a.235.235,0,0,1,.041-.005.275.275,0,0,1,.046.005.37.37,0,0,1,.046.01c.027.007.061.017.1.031.161.049.176.075.171.087m2.48-14.254.026,0a.078.078,0,0,1,.043.008.007.007,0,0,1,0,.005.054.054,0,0,0,.01.031c.015.019.041.026.055.046a.04.04,0,0,1,.005.038c-.009.027-.046.044-.046.044l-.142.027a.136.136,0,0,1-.026,0,.15.15,0,0,1-.073-.021c-.1-.061.082-.167.147-.181m-.508,4.47a.052.052,0,0,1,.015,0c.012.037-.029.118-.121.239a.793.793,0,0,0-.067.089c-.01.022-.01.029.012.041.041.021.066.039.1.145.012.043.024.062.058.062a.191.191,0,0,0,.039-.005,1.145,1.145,0,0,1,.193-.034c.043,0,.058.017.092.053a.876.876,0,0,1,.229.534c-.009.1-.082.213-.143.222h0c-.01,0-.027-.007-.029-.044a.214.214,0,0,0-.034-.126.084.084,0,0,0-.063-.027.232.232,0,0,0-.065.014.179.179,0,0,1-.051.01.006.006,0,0,1-.005,0,.283.283,0,0,1-.063-.015,2.956,2.956,0,0,0-.541-.082,1.974,1.974,0,0,1-.393-.039c-.01-.005-.031-.014-.007-.048.063-.087.155-.147.222-.23.124-.159.21-.341.336-.5a1.029,1.029,0,0,1,.292-.261ZM996.3,365.4a.422.422,0,0,0,.135-.046.4.4,0,0,1-.048.009h-.008a4.437,4.437,0,0,1,.5-.186h.019c-.017.022-.046.031-.063.051.007.031-.026.036-.037.053.008.007.017.005.027.007s0,.012-.085.051a.145.145,0,0,0-.031.015s0,0,0,0c.045.01.045.01.048.014a.036.036,0,0,1-.014.009c-.058.029-.125.037-.184.065-.1.043-.182.108-.283.143-.041.015-.085,0-.126.017l-.084.024-.014,0-.007,0h0c-.015-.008-.012-.051.024-.073a1.315,1.315,0,0,1,.214-.077.511.511,0,0,0,.1-.036s0-.005,0-.007a.039.039,0,0,0-.021,0,.324.324,0,0,0-.078.017.878.878,0,0,1-.142.036l-.005,0a.346.346,0,0,1,.167-.089m-.377.113c.041-.021.181-.065.182-.065a.033.033,0,0,1,.014,0h0c0,.005,0,.007-.143.075-.029.014-.051.026-.067.031a.025.025,0,0,1-.019,0s-.015-.016.031-.039m.073.2a.056.056,0,0,1-.017.014.394.394,0,0,1-.145.074,2.078,2.078,0,0,1-.31.056h-.005a.922.922,0,0,1,.087-.031c.065-.02.135-.034.2-.054s.113-.039.171-.056l.01,0,.008,0s0,0,0,0m-.256-.061a.2.2,0,0,1,.031-.017l.017,0,.01,0a.011.011,0,0,1,.007.005,0,0,0,0,1,0,0c0,.007,0,.012,0,.019s.02,0,.02.017-.007.015-.031.027c-.058.027-.256.111-.277.113l0,0c.014-.031.036-.039.1-.063s.082-.068.125-.1m-.362.1c-.019,0-.036.01-.055.01a.031.031,0,0,1-.012,0,2.109,2.109,0,0,1,.278-.116l.009,0,0,0c-.017.022-.053.021-.067.048.014,0,.026-.01.038-.01a.016.016,0,0,1,.008,0,.59.59,0,0,1-.164.15s0,0-.005,0a.82.82,0,0,1-.084.031.119.119,0,0,1-.029.005l-.005,0c.005-.024.036-.022.041-.044a.088.088,0,0,0-.019,0,.356.356,0,0,0-.106.017.066.066,0,0,1-.019,0,1,1,0,0,1,.121-.053c.06-.022.073-.031.07-.039Zm-.229.538c.046-.053.116-.07.166-.116,0,0,.085-.108.06-.123l0,0a.169.169,0,0,0-.052.007l-.065.022a.2.2,0,0,1-.063.015.311.311,0,0,1,.1-.114c.031-.007.078-.014.092-.015l.019,0c.034,0,.068.01.1.01a.086.086,0,0,0,.021,0,.911.911,0,0,1,.114-.027h.007c.017,0,.1.053-.067.1a.122.122,0,0,0-.053.022c-.007.008,0,.024.014.039a.109.109,0,0,0,.077.034.135.135,0,0,0,.043-.009c.029-.012.094-.034.171-.061.046-.017.1-.034.147-.05l.15-.044c.046-.014.087-.024.12-.031a.4.4,0,0,1,.055-.007h0s.181.01.109.082a3.21,3.21,0,0,1-1.292.372h-.007c-.008,0-.017,0-.022-.007s0,0,0-.007.014-.039.056-.087m1.167.166,0,0,0,0-.031.014c-.027.012-.067.027-.109.043l-.053.015a.484.484,0,0,1-.133.022.135.135,0,0,1-.086-.024c-.029-.026-.07-.111.058-.133a.522.522,0,0,1,.072,0,.618.618,0,0,1,.288.065m-1.319-.573.009,0,0,0c-.009.007-.067.036-.067.036-.049.027-.08.039-.084.041a.215.215,0,0,1-.068.022.449.449,0,0,0-.092.039l-.108.041a3.2,3.2,0,0,1,.406-.177m-.251.207a.513.513,0,0,1,.131-.082.007.007,0,0,0,.005,0l0,0s0,0-.009.01l-.043.036a.262.262,0,0,1-.022.022l-.014.01s-.06.036-.066.037c.02-.029.02-.029.014-.034m-.386.082c.007-.005.053-.025.072-.034l.007,0h0a.277.277,0,0,1-.055.039.107.107,0,0,1-.039.014h0s.005-.012.014-.017m.365-.145.017,0-.012.008a.743.743,0,0,1-.084.036.594.594,0,0,0-.085.039l0,0h0a.031.031,0,0,0,0,.012,2.167,2.167,0,0,1-.277.126,1.53,1.53,0,0,1,.439-.22m-.137.249a.29.29,0,0,1-.147.067c-.008,0-.012,0-.012,0s0,0,.007-.01.082-.068.09-.073a.679.679,0,0,1,.085-.041.05.05,0,0,1,.019-.005h0c.014,0,.02.021-.044.065m-.452.01.013,0h0a.114.114,0,0,1-.038.033l-.488.278a.864.864,0,0,1,.152-.1c-.143.07-.266.172-.411.237a.032.032,0,0,0,.008-.007c-.063.031-.109.09-.182.1a9,9,0,0,1,.942-.537m-.06.075v0a.146.146,0,0,1-.026.017.331.331,0,0,1-.1.048l0,0a.649.649,0,0,1,.121-.063l.007,0m-.553.3v0c-.278.183-.292.183-.3.183.012-.017.271-.167.3-.184m-.307.277a3.863,3.863,0,0,0,.394-.208.814.814,0,0,0-.126.055c-.068.037-.07.037-.077.037.039-.031.092-.048.121-.094l-.046.026-.075.041-.08.044-.036.021c-.016.007-.026.014-.032.017l-.009.005-.007,0h0c.005-.082.6-.369.6-.37.043.048-.06.066-.091.1l-.005.005a.173.173,0,0,0-.017.019l0,.005c.22-.051.26-.126.266-.155s.3-.189.3-.191h.01c-.085.089-.188.159-.275.246.07-.041.131-.1.2-.137a.162.162,0,0,1,.065-.019h.005c-.005.008-.009.014-.053.044,0,0-.234.164-.3.195a1.956,1.956,0,0,1-.242.094s-.128.055-.377.2a.578.578,0,0,1-.147.068h0c-.022,0-.022-.027.021-.046m.988-.4a.664.664,0,0,1-.157.072v0a.708.708,0,0,1,.123-.08.289.289,0,0,1,.039-.015l.012,0h0c.012,0,0,.015-.019.027m-2.461,1.37c.809-.665.809-.665.993-.742l.017,0,.007,0c-.007.026-.007.026-.045.058a.544.544,0,0,1,.135-.07.014.014,0,0,1,0,.009c-.043.08-.043.08-.077.106-.147.107-.307.195-.457.3-.082.058-.154.13-.235.186a.037.037,0,0,1-.019.007s0,0,0-.005a2.925,2.925,0,0,1-.5.386.018.018,0,0,0-.008,0,.575.575,0,0,1,.184-.226m1.217.005h-.024a.332.332,0,0,0-.184.08.2.2,0,0,0-.027.025.1.1,0,0,0-.031.041l.068-.036.051-.027a.075.075,0,0,1,.021-.005h.007a.054.054,0,0,1-.007.009,1.078,1.078,0,0,1-.138.142.5.5,0,0,1-.142.062.84.84,0,0,1-.172-.051.368.368,0,0,1,.022-.044.013.013,0,0,1-.009-.005.545.545,0,0,0-.143.1,2.393,2.393,0,0,1-.4.246,1.244,1.244,0,0,1-.271.111c.026-.046.073-.075.092-.127l-.005-.007h0c-.036,0-.065.027-.1.027l-.015,0c-.068-.017-.031-.186.35-.3a.93.93,0,0,0,.3-.136.135.135,0,0,1-.036,0c-.034,0-.067-.007-.1-.007a.125.125,0,0,0-.036,0c-.08.017-.147.072-.227.087a.011.011,0,0,1-.007,0,.042.042,0,0,1-.021-.005c0-.02.007-.038.15-.125.087-.053.087-.053.1-.077a.223.223,0,0,0-.029-.015c-.017-.087.71-.558.766-.563-.063.067-.154.1-.208.177.089-.034.159-.106.251-.135l.007.007c-.017.034-.05.053-.07.084a1.127,1.127,0,0,0,.189-.089l.012.01c-.02.048-.09.07-.073.138a2.763,2.763,0,0,0,.4-.382l.005,0s0,.01.005.015a.189.189,0,0,1,.044.014,4.212,4.212,0,0,1-.333.45c-.041.048-.01.13.065.172.012.06-.06.125-.062.125s-.015.01-.034.01m.522.043a.551.551,0,0,1-.28.118.356.356,0,0,1-.061.008s-.007,0-.007,0c-.021-.007-.017-.031-.032-.041a.018.018,0,0,0-.014-.005.324.324,0,0,0-.043.009l-.015,0a.09.09,0,0,1-.026.005.006.006,0,0,1-.005,0l0,0c.005-.017.039-.037.154-.107a2.273,2.273,0,0,0,.179-.159.208.208,0,0,1,.033-.019l.007,0a.166.166,0,0,1,.08.067s.055.1.032.13m-.031-.85,0,0c-.015,0,0-.031.005-.043s.01-.022.007-.029a.014.014,0,0,0-.008,0l-.022,0h0a.378.378,0,0,1,.186-.1.088.088,0,0,1,.031-.005h0c.022,0,.01.021-.041.067a.862.862,0,0,1-.154.113m.775-.268c-.077.053-.165.089-.244.142a.58.58,0,0,1,.12-.032c.037,0-.02.114-.041.135l-.017.017c-.014.012-.029.024-.048.037l-.029.021c-.019.014-.041.029-.063.043a.875.875,0,0,1-.288.137.025.025,0,0,1-.017-.005.028.028,0,0,1,0-.012c0-.022.01-.041.01-.063a.125.125,0,0,0-.01-.034.865.865,0,0,0-.029-.084.032.032,0,0,1,0-.012.391.391,0,0,1,.161-.1c0,.033-.048.046-.037.084h.005a.034.034,0,0,0,.021-.007,1.425,1.425,0,0,0,.176-.131c.005-.007.012-.019-.012-.036a.055.055,0,0,0-.022-.005h-.012a.049.049,0,0,1-.015,0s0,0,0,0a.915.915,0,0,1,.288-.147l.148-.031.017,0a.043.043,0,0,1,.014,0,.018.018,0,0,1,.008,0,.026.026,0,0,1,.021.007c0,.005-.1.089-.1.09m.312-.374c-.06.024-.114.044-.116.044l0,0c.014-.041.181-.133.244-.169l-.087.029-.044.014c-.07.024-.072.022-.08.021s0,0,.009-.022a.015.015,0,0,0-.009,0c-.005,0-.012,0-.019,0a.007.007,0,0,1-.005,0,1.41,1.41,0,0,0,.214-.1v-.007a.058.058,0,0,1-.019,0,.175.175,0,0,1,.108-.06h.005a.066.066,0,0,1-.008.026.489.489,0,0,0-.021.053c.039-.031.056-.043.067-.053a.024.024,0,0,1,.007-.007.025.025,0,0,1,.005-.007.024.024,0,0,0,.005-.007.12.12,0,0,0,.017-.026l.016-.026.007-.005c.019-.012.217-.07.219-.07l.014,0a.019.019,0,0,1,.009,0c0,.008-.007.01-.039.037-.154.126-.154.126-.212.181,0,0,0,0,0,0a.025.025,0,0,0,0-.019.983.983,0,0,1-.147.121c-.014.009-.077.033-.137.055m.442-.089a.28.28,0,0,1-.165.072.081.081,0,0,1-.038-.009c-.041-.025-.032-.032-.005-.051a2,2,0,0,1,.283-.145l.017,0c.043,0-.048.1-.092.135m2.78,1.181a.135.135,0,0,1-.007.053c0,.005-.193.491-.319.515h-.009c-.044,0-.092-.061-.136-.121,0,0-.04-.049-.091-.1l-.024-.024c-.061-.063-.133-.125-.179-.125h-.005s-.3.094-.237.27c.073.212.317.193.447.329.061.063-.065.345-.14.369h-.005a.125.125,0,0,1-.051-.027.777.777,0,0,0-.44-.145,2.651,2.651,0,0,0,.317.288c.034.017.034.017.041.038a.327.327,0,0,1-.14.022,2.022,2.022,0,0,1-.758-.164c.159-.06.159-.06.191-.092-.029-.014-.056-.025-.082-.036l-.131-.056a.572.572,0,0,0-.205-.055.667.667,0,0,0-.2.048,1.144,1.144,0,0,1-.341.078.116.116,0,0,1-.075-.019.142.142,0,0,1,.052-.171,2.545,2.545,0,0,1,.5-.123c.551-.166.59-.562.59-.565,0-.176-.186-.166-.266-.261-.063-.077-.092-.176-.16-.249a1.88,1.88,0,0,0-.178-.137c-.019.032-.048.08-.247.1-.234.026-.227.055-.215.1a.375.375,0,0,1-.049.017l-.053.014a2.509,2.509,0,0,1-.265.043l-.085.007c-.027,0-.055,0-.082,0a.811.811,0,0,1-.133-.01.405.405,0,0,1-.055-.014.141.141,0,0,1-.043-.021c-.157-.108.679-.807.959-.874a1.578,1.578,0,0,1,.23-.027.222.222,0,0,1,.066.008.728.728,0,0,0,.029.259h.009l.015,0,.022-.005.022-.008.049-.019.051-.019a1.658,1.658,0,0,1,.418-.121h.014c.1.008.089.126.162.162a.248.248,0,0,0,.111.019h.044c.019,0,.039,0,.058,0a1.07,1.07,0,0,1,.493.4c0,.026-.046.048-.144.09a1.282,1.282,0,0,0-.275.14Zm-2.108.2c.034-.084.219-.131.22-.131a.058.058,0,0,1,.017,0,.038.038,0,0,1,.032.012c.012.01.014.032.007.065a.243.243,0,0,1-.014.043.828.828,0,0,1-.073.143c-.009.012-.017.022-.026.032a.085.085,0,0,1-.055.032.032.032,0,0,1-.02-.007c-.031-.019-.108-.142-.089-.188m2.912-2.9c-.031.008-.577.179-.649.2l.015,0a.124.124,0,0,1,.048,0,1.8,1.8,0,0,1-.486.162l.015.005c0,.024-.108.137-.4.208a1.2,1.2,0,0,0-.294.186l.037.009c.027.078-.265.225-.385.225a.092.092,0,0,1-.022,0c.034-.026.034-.026.044-.053a.276.276,0,0,0-.065-.007.531.531,0,0,0-.183.043,1.178,1.178,0,0,1-.131.048.349.349,0,0,1-.044.012l-.053.01a1,1,0,0,1-.174.026.054.054,0,0,1-.017,0,.05.05,0,0,1-.008-.012c.092-.092.228-.1.335-.169,0-.034.015-.1.2-.109a.051.051,0,0,0,.043.02.653.653,0,0,0,.249-.1.718.718,0,0,1-.2.06s0-.01.005-.014c-.027-.017-.062-.012-.092-.025a.617.617,0,0,1,.077-.043c.017-.01.036-.019.056-.029a.845.845,0,0,1,.3-.1.146.146,0,0,1,.039.005.267.267,0,0,0,.065-.136.188.188,0,0,1,.094-.041,6.1,6.1,0,0,0,.715-.21c-.13.034-.474.128-.589.155.041-.015.084-.029.125-.046l-.094.024a.675.675,0,0,1-.133.027.049.049,0,0,1-.029-.009.635.635,0,0,1,.2-.085l.1-.029a2.321,2.321,0,0,1,.307-.068h0l.049,0a.179.179,0,0,0,.06-.01.063.063,0,0,1-.024-.019c.13-.049.727-.152.734-.154s.251-.031.4-.031c-.154.039-.312.063-.466.1.06-.005.07-.007.23-.029" transform="translate(-986.289 -322.585)" fill="#fff"/>
      <path id="Path_167" data-name="Path 167" d="M1207.9,222.475q0-3.964,0-7.928c0-3.836-.02-7.673-.021-11.509,0-6.271,3.1-10.908,8.911-13.232,1.286-.515,2.639-.865,3.962-1.288.372-.119.672-.11.74.388.639,4.665.412,9.165-2.69,13.042a15.11,15.11,0,0,1-6.708,4.523c-1.595.605-1.381.344-1.387,1.961-.018,4.722,0,9.444-.035,14.165-.049,6.881-.106,13.762-.212,20.642a30.708,30.708,0,0,1-.412,5.6,12.514,12.514,0,0,1-13.257,9.782,12.319,12.319,0,0,1-11.226-10.129c-1.088-5.8,2.862-11.8,8.489-12.893a9.2,9.2,0,0,1,10.71,7c1.017,5.149-3.271,9.952-8.607,8.676a9.126,9.126,0,0,1-3.082-1.707,1.2,1.2,0,0,1-.11-1.992,1.308,1.308,0,0,1,1.968.02c3.087,2.73,6.526.289,7.079-2.39a5.24,5.24,0,0,0-2.186-5.612,6.775,6.775,0,0,0-9.689,1.419,9.086,9.086,0,0,0,6.114,14.632,9.932,9.932,0,0,0,9.133-3.106,8.653,8.653,0,0,0,2.271-5.745c.106-2.47.137-4.944.157-7.417.036-4.664.036-9.329.061-13.993.007-1.311.023-1.311-1.332-1.365a19.269,19.269,0,0,1-8.051-1.972,12.789,12.789,0,0,1-6.623-8.667,42.116,42.116,0,0,1-.742-4.958c-.058-.419.052-.726.586-.694,3.948.237,7.74.97,10.9,3.578a13.791,13.791,0,0,1,4.492,7.938c.244,1.072.419,2.159.626,3.24l.172-.007" transform="translate(-1138.482 -188.455)" fill="#fff"/>
      <path id="Path_168" data-name="Path 168" d="M1058.187,372.431c-1.449,0-2.743.019-4.033-.024-.181,0-.4-.29-.515-.5a9.664,9.664,0,0,0-9.6-4.692v-3.169a18.206,18.206,0,0,1,2.437.031,13.041,13.041,0,0,1,11.3,7.347c.137.266.229.555.412,1" transform="translate(-1030.436 -322.57)" fill="#fff"/>
      <path id="Path_169" data-name="Path 169" d="M1048.856,436.449a14.974,14.974,0,0,1-4.813.43V433.6a9.925,9.925,0,0,0,8.408-2.787,10.6,10.6,0,0,0,2.794-5.91c.114-.659-.3-.683-.763-.684-2.985-.012-3.163-.026-6.15-.038-.312,0-.625-.012-.937,0a.768.768,0,0,1-.546-.15v-2.475a1.061,1.061,0,0,1,.693-.162c2.531.024,2.255.01,4.786.009q2.985,0,5.971,0c.447,0,.8,0,.84.645a13.948,13.948,0,0,1-10.284,14.4" transform="translate(-1030.437 -366.426)" fill="#fff"/>
      <path id="Path_170" data-name="Path 170" d="M1417.951,392.62a19.314,19.314,0,0,1,2.714-2.116c4.809-2.556,13.241-1.044,13.553,7.448.163,4.431.028,8.872.057,13.309,0,.665-.2.934-.874.889a13.936,13.936,0,0,0-1.791,0c-.667.042-.883-.216-.878-.889.028-3.555.041-7.11,0-10.665a16.975,16.975,0,0,0-.353-3.8c-.7-2.856-3.067-4.406-6.323-4.338a5.851,5.851,0,0,0-5.865,4.629,13.363,13.363,0,0,0-.317,2.695q-.052,5.716,0,11.433c.005.693-.185.993-.906.938a13.17,13.17,0,0,0-1.791,0c-.684.041-.959-.2-.957-.924.02-6.683.008-13.367.012-20.05,0-1.374.016-1.374,1.423-1.375.484,0,.97.031,1.45-.008.615-.05.8.216.766.8-.033.651.01,1.306.027,1.958,0,.041.065.079.058.071" transform="translate(-1313.398 -341.952)" fill="#fff"/>
      <path id="Path_171" data-name="Path 171" d="M1307.388,399.194c-.067-5.194,3.622-10.155,8.561-11.107a9.34,9.34,0,0,1,10.811,7,7.217,7.217,0,0,1-8.545,8.677,10.374,10.374,0,0,1-3.3-1.819,1.1,1.1,0,0,1-.1-1.73,1.31,1.31,0,0,1,1.884-.315,3.191,3.191,0,0,1,.27.209,3.841,3.841,0,0,0,4.564.721,4.653,4.653,0,0,0,2.616-4.2c.1-2.694-2.206-5.26-5.068-5.806-5.094-.971-8.442,3.227-8.82,7.5-.63,7.107,6.315,11.293,12.337,9.573a10.193,10.193,0,0,0,4.414-2.471c.827-.8,1.182-.9,1.757-.4a1.545,1.545,0,0,1,.037,2.277,15.163,15.163,0,0,1-2.677,2.089,12.456,12.456,0,0,1-17.278-4.657,10.942,10.942,0,0,1-1.456-5.544" transform="translate(-1231.739 -340.842)" fill="#fff"/>
      <path id="Path_172" data-name="Path 172" d="M1133.51,393.518c.352-.451.555-.7.748-.96a7.322,7.322,0,0,1,5.564-2.889c.626-.054.889.147.856.8a8.307,8.307,0,0,1-.087,2.45c-.372.949-1.448.369-2.19.484-3.428.532-4.878,2.887-4.947,6.317-.077,3.865-.04,7.732,0,11.6.009.82-.229,1.135-1.054,1.057-.62-.058-1.258.038-1.871-.047-.229-.032-.436-.366-.607-.6-.069-.092-.017-.276-.017-.418q0-10.064,0-20.127c0-1.131.008-1.131,1.127-1.138,2.384-.015,2.383-.015,2.409,2.406,0,.269.035.537.071,1.067" transform="translate(-1096.055 -342.168)" fill="#fff"/>
      <path id="Path_173" data-name="Path 173" d="M1302.926,526.42h62.835V503.731h-62.835Zm9.121-5.12h-3.616v-13h3.616Zm19.091,0h-3.616v-7.174l-2.453,7.174h-3.025l-2.471-7.232V521.3h-3.615v-13h4.371l3.265,8.448,3.19-8.448h4.354Zm15.006-3.156a5.956,5.956,0,0,1-2.379,2.315,7.33,7.33,0,0,1-3.57.841h-5.145v-13h5.145a7.526,7.526,0,0,1,3.588.822,5.783,5.783,0,0,1,2.37,2.295,6.786,6.786,0,0,1,.829,3.375,6.676,6.676,0,0,1-.838,3.357m13.483,1.292a3.994,3.994,0,0,1-1.679,1.459,5.85,5.85,0,0,1-2.592.534,6.1,6.1,0,0,1-3.726-1.079,3.9,3.9,0,0,1-1.569-3.089h3.856a1.434,1.434,0,0,0,.406,1,1.465,1.465,0,0,0,1.724.064.825.825,0,0,0,.323-.692.984.984,0,0,0-.534-.886,9.569,9.569,0,0,0-1.736-.7,15.643,15.643,0,0,1-2.056-.82,3.965,3.965,0,0,1-1.365-1.163,3.222,3.222,0,0,1-.582-2,3.659,3.659,0,0,1,.627-2.148,3.892,3.892,0,0,1,1.734-1.355,6.492,6.492,0,0,1,2.51-.46,5.724,5.724,0,0,1,3.625,1.06,3.819,3.819,0,0,1,1.447,2.979h-3.93a1.15,1.15,0,0,0-.359-.886,1.288,1.288,0,0,0-.875-.3.931.931,0,0,0-.664.24.878.878,0,0,0-.259.682.838.838,0,0,0,.286.637,2.567,2.567,0,0,0,.71.46c.282.128.7.293,1.255.488a15.666,15.666,0,0,1,2.038.84,4.193,4.193,0,0,1,1.383,1.161,3,3,0,0,1,.582,1.892,3.832,3.832,0,0,1-.582,2.084" transform="translate(-1176.925 -456.213)" fill="#fff"/>
      <path id="Path_174" data-name="Path 174" d="M1420.625,531.448a3.247,3.247,0,0,1-.9,2.455,3.46,3.46,0,0,1-2.492.865h-1.255v-6.675h1.255a3.433,3.433,0,0,1,2.492.875,3.3,3.3,0,0,1,.9,2.48" transform="translate(-1254.238 -472.874)" fill="#fff"/>
    </g>
  </g>
</svg>
