<svg xmlns="http://www.w3.org/2000/svg" width="450.857" height="168.307" viewBox="0 0 450.857 168.307">
  <g id="Group_55" data-name="Group 55" transform="translate(0 0)">
    <g id="Group_53" data-name="Group 53" transform="translate(0 0)">
      <path id="Path_165" data-name="Path 165" d="M1017.88,365.574h0a4.815,4.815,0,0,1,.97-.094h0c.069-.048.069-.048.672-.081.135-.008.338-.012.566-.012v-1.345a34.668,34.668,0,0,0,0,69.315v-1.683c-.053-.024-.106-.045-.159-.073-.1-.045-.2-.1-.305-.155s-.208-.122-.318-.191a6.393,6.393,0,0,1-.676-.5c-.114-.1-.233-.2-.355-.314-.057-.057-.114-.11-.175-.175s-.122-.122-.183-.187a10.845,10.845,0,0,1-.921-1.133c-1.924-2.706-3.028-7.664-3.04-7.709a3.562,3.562,0,0,0-1.19-2.249c-.745-.534-1.7-.672-2.4-1.279a48.468,48.468,0,0,1-3.61-3.916c-.041-.061-.086-.151-.122-.216a7.979,7.979,0,0,1,.3-2.535c.538-1.177.538-1.177.473-1.459a5.942,5.942,0,0,0-.444-1.292,1.49,1.49,0,0,0-.146-.24.6.6,0,0,0-.452-.294c-.208,0-.444.175-.709.615h-.1a3.8,3.8,0,0,1-2.522-1.263c-.069-.061-.134-.123-.2-.18a4.079,4.079,0,0,0-2.091-1.178l-.216-.028c-.44-.045-.44-.045-1.683-.754a1.154,1.154,0,0,0-.591-.142c-.257,0-.517.053-.775.053a1.431,1.431,0,0,1-.322-.036c-.542-.13-1.1-.216-1.634-.354a5.2,5.2,0,0,1-.493-.2,1.415,1.415,0,0,1-.265-.122c-.526-.371-.4-1.019-.661-1.507-.314-.6-.957-.913-1.332-1.463-.293-.424-.627-.815-.9-1.251a2.91,2.91,0,0,1-.265-.819,1.689,1.689,0,0,0-.827-1.214,7.554,7.554,0,0,0,1.129,3.015c.615.872.489,1.059.367,1.235-.012-.012-1.349-1.74-1.532-2.123.11-.008.253-.012.358-.012-1.511-3.1-1.511-3.1-1.6-3.117-.7-1.218-.334-7.746.713-9.05.085.045.2.1.285.151a1.3,1.3,0,0,0-.065-.452c-.012-.04-.024-.081-.037-.122-.016-.057-.036-.11-.057-.167v.016c0,.04.012.077.008.118a.425.425,0,0,1-.029.155.208.208,0,0,1-.114.127h-.025a.2.2,0,0,1-.142-.061.139.139,0,0,1-.033-.037.4.4,0,0,1-.053-.114,1.622,1.622,0,0,1-.008-.668l0,0c.032.008.069.138.082.175.02.078.025.082.037.094s.028.016.065.02a.454.454,0,0,1,.155.029,1.386,1.386,0,0,1-.085-.717,11.225,11.225,0,0,1,.411-1.687l-.094-.159c.041-.122.094-.285.134-.411a8.433,8.433,0,0,1,.7-1.989.08.08,0,0,0-.012.016c.069-.122.134-.228.2-.33.025-.041.049-.082.074-.118a.014.014,0,0,1,0-.008c.024-.04.045-.078.069-.114.065-.11.131-.211.192-.309l.11-.172c.322-.5.648-.945,1.324-1.825.045-.065.1-.13.151-.2.037-.053.078-.106.123-.163.077-.1.155-.2.24-.313.163-.212.342-.444.538-.7.485-.542,1.133-1.267,1.618-1.813a.752.752,0,0,0-.1.151,14.582,14.582,0,0,1,1.357-1.206c-.264.244-.542.468-.8.717.876-.746.876-.746,1.357-1.19a1.9,1.9,0,0,0-.371.538,1.592,1.592,0,0,1,.285-.249,1.129,1.129,0,0,0-.114.171c.159-.106.273-.277.473-.318a.783.783,0,0,1,.122.138l.135.012c.037,0,.069,0,.094,0a.288.288,0,0,0,.167-.049l.077.041c-.069.293-.363.358-.542.538a1.13,1.13,0,0,0,.114.008,1.1,1.1,0,0,0,.4-.089c.13-.053.252-.118.383-.167a.969.969,0,0,1,.261-.078c.024.208-.167.388-.085.6.44-.856.656-1.284,1.393-1.471.065.086.053.2.11.285.11,0,.207.008.3.008.668,0,.864-.127.9-.155l.192-.151c.085-.069.159-.126.22-.171.021-.016.045-.033.061-.044.037-.029.069-.053.1-.074a.453.453,0,0,1,.256-.106.448.448,0,0,1,.135.024c-.395.42-.395.42-.183.64.228-.521.831-.684,1.109-1.158-.029-.008-.061-.016-.085-.02l0-.069a1.382,1.382,0,0,1,.465-.294.445.445,0,0,1-.012-.044c0-.016-.008-.029-.012-.041-.139.008-.273.037-.411.041l-.041-.094c.012-.02,1.764-2.453,3.06-2.758a1.2,1.2,0,0,1,.2-.029.941.941,0,0,1,.1.008c-1.618.957-1.618.957-1.964,1.491.025.02.065.049.09.069,0,.118,0,.118-.608,1.1a1.912,1.912,0,0,1,.371.02c0,.008-.4.53-.334.726.289-.257.448-.653.839-.8.347.362-.391.6-.448.966a.479.479,0,0,0,.318.142c.273,0,.5-.326.734-.627.049-.061.094-.123.143-.175a.466.466,0,0,1,.073-.082.919.919,0,0,1,.22-.187c.016-.061.032-.118.049-.167a.871.871,0,0,1,.183-.338.4.4,0,0,1,.3-.134.972.972,0,0,1,.583.3,1.454,1.454,0,0,1-.123.273c-.114.122-.322.106-.407.269s.036.322,0,.481a.28.28,0,0,1-.024.065.468.468,0,0,1-.037.049.7.7,0,0,1-.126.138c-.257.224-.257.224-1.235.578a.334.334,0,0,0-.183-.057.583.583,0,0,0-.391.212.4.4,0,0,1,.167.057c-.427.656-1.153.305-1.715.505.069.041.135.074.191.1a1.329,1.329,0,0,0,.24.093,1.363,1.363,0,0,0,.583-.02c.053-.008.106-.016.167-.029-.859.917-.859.917-2.367,1.186.15.114.407.012.5.249-.774.575-2.591,1.923-2.461,2.669.574.045.574.045.62.289.114.7.114.7.207.775a1.853,1.853,0,0,0,.343-.155,1.011,1.011,0,0,1,.265-.094.5.5,0,0,1,.183,0,1.046,1.046,0,0,1,.2.049c.338.118.517.473.868.57a.7.7,0,0,0,.162.02c.163,0,.334-.049.5-.049a.516.516,0,0,1,.387.151h.025a1.173,1.173,0,0,1,.175.012c.009.029,0,.085.009.114-.053.041-.143.114-.192.155a1.149,1.149,0,0,1,0,.982,5.2,5.2,0,0,1,.909.591.832.832,0,0,1,.1.127c.778-.538.33-1.39.509-2.074a.779.779,0,0,0,.187-.159c-.073-.249.265-.358.412-.391.68-.159.66-1.333.656-1.345-.008-.293-.318-.472-.3-.774.017-.265.306-.338.379-.562-.379-.476.179-.888.094-1.345a11.769,11.769,0,0,1,1.5-.224c.032,0,.057,0,.077,0a.454.454,0,0,1,.163.036c.538.175.59.269.611.305.07.114.1.151.151.172a.616.616,0,0,0,.208.028c.089,0,.179-.012.269-.012a.626.626,0,0,1,.191.028,1.589,1.589,0,0,0-.31,1.064,1.321,1.321,0,0,1,.338.134.983.983,0,0,0,.762.163c.069-.02.069-.02.314-.354.11-.147.314-.025.424-.155.1-.114-.053-.232.009-.346.163-.31.257-.489.371-.489.155,0,.346.342.8,1.158.314.558.314.558.171.758-.1.134-.134.2-.081.265.122.163.363.122.485.285.094.122-.012.261.037.387a.317.317,0,0,0,.077.016.613.613,0,0,0,.143-.029,1.149,1.149,0,0,1,.3-.041c.5,0,.864.326.839.391a.249.249,0,0,1-.106.074c-1.553.126-2.649.224-3.916.358,1.378-.138,2.628-.244,3.907-.354-.66.253-.746.285-.925.542.02.044.049.1.069.146a2.126,2.126,0,0,1,1.023-.424h.155c.18.036.359.078.538.114a1.8,1.8,0,0,1,.1.155c-.159.4-.159.4-.048.668-.021.033-.045.069-.074.106a.8.8,0,0,1-.1.11,1.257,1.257,0,0,1-.131.118c-.049.041-.1.082-.151.118-.082.061-.167.122-.265.183-.061.041-.126.082-.191.118-.1.061-.2.118-.31.171h0a2,2,0,0,1-.212.11,5.682,5.682,0,0,1-.843.326c-.065.02-.126.036-.187.049a1.8,1.8,0,0,1-.334.04.457.457,0,0,1-.269-.065c-2.189.664-2.189.664-4.316,2.876.147-.089.281-.175.416-.256s.256-.163.375-.236.232-.147.338-.212.208-.13.306-.187c.142-.089.273-.171.395-.245s.232-.138.33-.2c.265-.163.461-.273.608-.346h0a.886.886,0,0,1,.1-.049.909.909,0,0,0,.086-.037.319.319,0,0,1,.073-.024.076.076,0,0,0,.029-.008.2.2,0,0,1,.175.016l0,0a.116.116,0,0,1,.037.028.335.335,0,0,1,.04.037c-.089.436-.4.521-.839.64a.71.71,0,0,0,.432.281c.122.375.175.53.485.676a.6.6,0,0,1,.025-.464.012.012,0,0,0,.008,0s.012.008.008.061a.264.264,0,0,0,.171.3.786.786,0,0,0,.35.069,1.408,1.408,0,0,0,.216-.016c.028,0,.041-.008.049-.008s.012,0,.016,0,0,0,0,0a.016.016,0,0,1,0,.012.618.618,0,0,1-.314.228c.179.053.4.114.66.187.2-.306.216-.726.559-.953a1.035,1.035,0,0,1-.216.978,1.7,1.7,0,0,1-.159.192,1.894,1.894,0,0,1-.184.191.72.72,0,0,1-.1.094c-.069.061-.138.122-.216.179-.037.028-.073.057-.114.085-.073.057-.154.11-.231.163-.041.029-.082.053-.123.078a3.946,3.946,0,0,1-.481.265,2.609,2.609,0,0,1-1,.314h-.012c.016-.245.016-.245,1.2-1.088v-.179h-.016a1.153,1.153,0,0,1-.354-.074c.02-.044.049-.1.069-.142-.2.114-.375.216-.534.309l-.208.119c-.42.244-.7.407-.9.521-.041.02-.073.04-.106.057-.074.041-.13.074-.179.1a.593.593,0,0,1-.057.025.537.537,0,0,1-.069.032.3.3,0,0,0-.033.012.156.156,0,0,1-.057.008h-.02c-.709.66-.709.66-.839,1.919h0a.23.23,0,0,0-.037.008.458.458,0,0,1-.061.025c-.159.065-.485.232-.787.391-.044.025-.089.049-.134.069-.289.151-.526.281-.529.285-.339.33-.265.823-.485,1.2a1.976,1.976,0,0,0-.281-.5c-.1,1.605-.1,1.605-.22,1.679,0,0,0-1.1-.016-1.463l-.249,2.441c.049.016.109.041.155.057,0,.057-.012.134-.02.191-.045.016-.106.033-.156.049,0,.045-.012.11-.02.159.037.036.077.086.11.122h.02c-.746.852-2.074,1.161-2.3,2.493-.211,1.288,1.732,2.42.522,3.7a1.709,1.709,0,0,1-.705-1.341,1.653,1.653,0,0,0-.741-1.324c-.029,0-.407.033-.88.082-.053,0-.106.008-.159.016l-.452.049c-.053.008-.106.012-.159.02a5.46,5.46,0,0,0-1.17.224c-.012.053-.024.123-.037.172.135.11.314.155.432.285-.041.037-.1.081-.139.118a6.178,6.178,0,0,0-.677-.122c-.069-.012-.147-.021-.224-.029h0c-.073-.008-.151-.016-.228-.02s-.159-.008-.237-.008a1.817,1.817,0,0,0-.378.033.349.349,0,0,0-.061.016.49.49,0,0,0-.179.082,5.861,5.861,0,0,0-1.357,1.687c-.122.4.354.574.363.929.012.554-.481,1.015-.31,1.6A3.669,3.669,0,0,0,998.521,404a.547.547,0,0,0,.277.082.664.664,0,0,0,.314-.089c.041-.025.077-.049.114-.069l.061-.037a.7.7,0,0,1,.114-.073h0a1.108,1.108,0,0,1,.114-.065.628.628,0,0,1,.257-.061h.028a6.307,6.307,0,0,1,.192-1.1,2.466,2.466,0,0,1,.11-.322,1.483,1.483,0,0,1,.3-.473.716.716,0,0,1,.159-.126.641.641,0,0,1,.33-.09.916.916,0,0,1,.445.127,1.158,1.158,0,0,1,.208.142c.016.012.028.021.037.029a4.568,4.568,0,0,1-.477,1.549c.2.407.2.407-.069,1.288.049,0,.1,0,.151,0,.485,0,.974-.142,1.459-.142a1.71,1.71,0,0,1,.8.175,2.945,2.945,0,0,1,.3,1.781c-.13.917.57,1,1.405,1a8.9,8.9,0,0,1,1.369.041l.172.037a1.327,1.327,0,0,1,.318.11,1.541,1.541,0,0,1,.134.082,3.273,3.273,0,0,1,.114-.579,2.051,2.051,0,0,1,.2-.472c.473-.852,1.41-1.12,2.64-1.12a25.528,25.528,0,0,1,3.509.375,1.3,1.3,0,0,1,.362.114,2.608,2.608,0,0,1,.489.31c.155.118.3.249.44.379a5.721,5.721,0,0,0,.888.737c.84.505,1.879.342,2.722.823a18.354,18.354,0,0,1,1.6,1.333V375.671c-.252-.045-.57-.106-.966-.18-.774-.26-2.388-2.991-2.424-3.117a1.313,1.313,0,0,1,.139-.893c.2-.305.615-.294.843-.562a.475.475,0,0,0-.293-.7.453.453,0,0,0-.183-.041c-.233,0-.416.192-.632.245-.09-.155-.024-.343-.09-.5-.045-.106-.192-.114-.216-.241-.008-.032-.008-.04.118-.277.314-.579-.648-1.646-.656-1.654-.078-.065-.118-.106-.432-.106-.147,0-.347.008-.64.025s-.669.045-1.166.082a1.607,1.607,0,0,1-.245-.065.328.328,0,0,1-.057-.02c-.2-.086-.4-.241-.212-.5a12,12,0,0,1,1.263-.42,1.858,1.858,0,0,0,.847-.391h-.053c-.167,0-.171,0-.22-.029a9.721,9.721,0,0,1,2.657-.672,2.7,2.7,0,0,1,.327-.02c.036,0,.077,0,.122,0,.253,0,.354,0,.407,0h.053a1.9,1.9,0,0,0-.5-.061h-.025a0,0,0,0,1,0,0s0,0,.009,0ZM990.3,385.218c0,.016-.013.033-.016.049-.045.13-.107.253-.155.383-.086.212-.135.44-.224.652a.146.146,0,0,1-.02.029,2.848,2.848,0,0,1,.367-1.207.086.086,0,0,1,.028-.012.013.013,0,0,1,.008,0,.019.019,0,0,1,.02.016.055.055,0,0,1,0,.045.089.089,0,0,1-.012.049m15.557-9.14a.528.528,0,0,1-.1.1,1.108,1.108,0,0,1-.1.078,2.045,2.045,0,0,1-.375.22.589.589,0,0,1-.09.041c-.02.008-.037.012-.049.016a.227.227,0,0,1-.077.016.064.064,0,0,1-.041-.012c-.053-.037-.037-.245.057-.318a2.356,2.356,0,0,1,.648-.228.525.525,0,0,1,.069-.008c.089,0,.081.048.053.1m.314-.472c-.151,0-.3-.049-.449-.049-.02,0-.045,0-.065,0a1.613,1.613,0,0,0-.8.428.777.777,0,0,1-.208.155h-.008c-.012,0-.017-.016-.033-.138s-.02-.11-.241-.127l.371-.6c.041-.065.094-.147.139-.212a3.977,3.977,0,0,1,.452-.542h.017a.023.023,0,0,1,.016,0c.069.041.069.138.143.179.106.07.245.057.354.123l.057.04c.11.086.159.224.253.322.053.057.13.09.188.143a.2.2,0,0,1,.048.191.119.119,0,0,1-.06.053.5.5,0,0,1-.171.024m.615.611c-.037.093-.306.391-.432.391a.05.05,0,0,1-.037-.012.274.274,0,0,1,.029-.313c.065-.081.33-.13.33-.13a.255.255,0,0,1,.053,0,.066.066,0,0,1,.057.02q.012.012,0,.049m5.957,6.915a.384.384,0,0,1-.183.065.684.684,0,0,1-.179,0,1.207,1.207,0,0,1-.359-.11c-.09-.044-.542-.265-.342-.338.016,0,.041,0,.069,0,.306,0,1.141.167,1.076.314a.623.623,0,0,1-.082.073m-7.909,20.683c-.032,0-.069,0-.1,0l-.089-.012c-.033-.008-.062-.012-.082-.016a.2.2,0,0,1-.041-.012c-.114-.04-.22-.334-.036-.407a.407.407,0,0,1,.069-.008c.232,0,.509.224.513.33s-.106.13-.232.13m.575-1.1a.962.962,0,0,1-.2-.073.375.375,0,0,1-.122-.089c.073-.078.245-.074.232-.225,0-.044-.049-.106-.114-.187a.911.911,0,0,1-.171-.347c-.09-.281-.123-.375-.567-.489-.245-.061-.607-.151-.627-.371,0,0,.012-.012.016-.012a.263.263,0,0,0,.127.036.127.127,0,0,0,.069-.02.125.125,0,0,0,.037-.045c-.016-.049-.122-.114-.3-.114a1.015,1.015,0,0,0-.493.147,1.549,1.549,0,0,1-.665.2.185.185,0,0,1-.069-.008.063.063,0,0,1-.041-.016,2.313,2.313,0,0,1,.868-.525,2.606,2.606,0,0,1,.51-.053,1.88,1.88,0,0,1,.391.037c.057.012.114.024.167.041a1.708,1.708,0,0,1,.5.245c.016.012,1.581,1.821,1.581,1.911,0,.045-.135.065-.318.065a3.121,3.121,0,0,1-.815-.11m3.875,1.377h0c-.025,0-.648-.02-1.125-.078-.069-.008-.134-.016-.191-.028a.761.761,0,0,0-.127-.016h-.024c-.131.012-.192.118-.253.22-.02.033-.041.065-.061.093a.237.237,0,0,1-.041.045.19.19,0,0,1-.069.045.211.211,0,0,1-.094.02c-.009,0-.021,0-.033,0-.179-.016-.081-.253-.207-.326-.286-.159-.628-.155-.913-.322-.009-.008-.009-.02-.016-.029a.153.153,0,0,1,.057-.008,3.649,3.649,0,0,1,.481.061,2.8,2.8,0,0,0,.4.049.127.127,0,0,0,.081-.016.646.646,0,0,0-.212-.693c-.033-.033-.033-.033-.033-.065.016-.016.021-.016.057-.029h.041c.342,0,2.4.2,2.286.624-.036.146.082.264.073.4,0,.036-.032.044-.069.053m1.781.452a.029.029,0,0,1-.02.016.46.46,0,0,1-.049.02l-.163.033-.089.012h0l-.094.012c-.065,0-.13.008-.183.008a.64.64,0,0,1-.094,0c-.225-.041-.46-.277-.278-.4a.556.556,0,0,1,.1-.012.662.662,0,0,1,.11.012.874.874,0,0,1,.11.024c.064.016.146.041.248.074.383.118.42.179.408.207m5.92-34.032c.025,0,.045,0,.062,0a.186.186,0,0,1,.1.02.015.015,0,0,1,0,.012.128.128,0,0,0,.024.073c.037.045.1.061.131.11a.1.1,0,0,1,.012.089c-.02.065-.11.106-.11.106l-.338.065a.332.332,0,0,1-.061.008.356.356,0,0,1-.175-.049c-.236-.147.2-.4.35-.432m-1.214,10.672a.124.124,0,0,1,.036.008c.029.089-.069.281-.289.57a1.858,1.858,0,0,0-.159.212c-.024.053-.024.069.029.1.1.049.158.093.227.346.029.1.057.147.139.147a.465.465,0,0,0,.094-.012,2.735,2.735,0,0,1,.46-.082c.1,0,.139.041.22.126a2.092,2.092,0,0,1,.546,1.276c-.02.232-.2.509-.343.529h-.008c-.025,0-.066-.016-.069-.106a.51.51,0,0,0-.082-.3.2.2,0,0,0-.151-.065.558.558,0,0,0-.155.033.425.425,0,0,1-.122.025.015.015,0,0,1-.013,0,.673.673,0,0,1-.151-.037,7.071,7.071,0,0,0-1.292-.2,4.7,4.7,0,0,1-.937-.093c-.025-.012-.073-.033-.016-.114.151-.208.371-.35.53-.55.3-.379.5-.815.8-1.186a2.457,2.457,0,0,1,.7-.623Zm-5.59-13.9a1.012,1.012,0,0,0,.322-.11,1.031,1.031,0,0,1-.114.021h-.02a10.592,10.592,0,0,1,1.194-.444h.044c-.041.053-.11.073-.151.122.016.074-.061.086-.089.127.02.016.041.012.065.016,0,.02-.008.028-.2.122a.33.33,0,0,0-.074.037s0,0,0,.008c.106.024.106.024.114.033a.087.087,0,0,1-.033.02c-.139.069-.3.089-.44.155-.232.1-.436.257-.677.343-.1.037-.2.012-.3.04s-.167.049-.2.057a.12.12,0,0,1-.032.008.03.03,0,0,1-.016,0h-.008c-.036-.02-.029-.122.057-.175a3.1,3.1,0,0,1,.51-.183,1.2,1.2,0,0,0,.232-.086s0-.012,0-.016a.1.1,0,0,0-.049-.008.768.768,0,0,0-.187.041,2.1,2.1,0,0,1-.338.086s-.009,0-.012,0a.827.827,0,0,1,.4-.212m-.9.269c.1-.049.432-.155.436-.155a.078.078,0,0,1,.033-.008h0c-.008.012-.008.016-.342.179-.07.033-.122.061-.159.073a.06.06,0,0,1-.045,0s-.036-.037.074-.094m.175.489a.144.144,0,0,1-.041.033.944.944,0,0,1-.347.175,4.947,4.947,0,0,1-.741.134h-.012a2.167,2.167,0,0,1,.207-.074c.155-.049.322-.081.477-.13.138-.041.269-.094.407-.135.008,0,.016,0,.025-.008a.162.162,0,0,1,.02,0s0,0,0,.008m-.611-.146a.466.466,0,0,1,.073-.041.183.183,0,0,1,.041-.008.063.063,0,0,1,.024,0,.027.027,0,0,1,.016.012,0,0,0,0,1,0,0c.009.016,0,.029,0,.045s.049.012.049.04-.016.036-.073.065c-.139.065-.612.265-.66.269,0,0,0,0-.008,0,.033-.074.085-.094.236-.151.126-.045.2-.163.3-.236m-.864.232c-.045,0-.086.025-.131.025a.072.072,0,0,1-.028,0,5.02,5.02,0,0,1,.664-.277l.02-.008s0,0,.008,0c-.041.053-.126.049-.159.114.033,0,.062-.025.09-.025a.037.037,0,0,1,.02,0,1.414,1.414,0,0,1-.391.359s-.009,0-.013.008a1.952,1.952,0,0,1-.2.074.3.3,0,0,1-.069.012s-.009,0-.012,0c.012-.057.085-.053.1-.106a.209.209,0,0,0-.045,0,.858.858,0,0,0-.253.04.153.153,0,0,1-.045.008,2.377,2.377,0,0,1,.29-.127c.142-.053.175-.073.167-.094Zm-.546,1.284c.11-.126.277-.167.4-.277.008-.008.2-.257.142-.294,0,0-.008,0-.012,0a.4.4,0,0,0-.123.016l-.155.053a.462.462,0,0,1-.151.037.742.742,0,0,1,.248-.273c.073-.016.187-.033.22-.037.016,0,.033,0,.045,0,.082,0,.163.024.249.024a.2.2,0,0,0,.049,0,2.155,2.155,0,0,1,.273-.065h.016c.04,0,.232.126-.159.236a.288.288,0,0,0-.126.053c-.016.02,0,.057.033.094a.26.26,0,0,0,.183.081.317.317,0,0,0,.1-.021c.069-.028.224-.082.407-.146.11-.041.228-.082.35-.119l.359-.106c.11-.033.208-.057.285-.073a.961.961,0,0,1,.13-.016h0s.432.024.261.2c-.644.636-3.064.889-3.084.889h-.016c-.02,0-.041,0-.053-.016,0,0-.008-.008-.008-.016,0-.033.033-.094.134-.208m2.787.4s0,0-.008,0a.014.014,0,0,0-.008,0c-.012,0-.037.016-.073.033-.065.029-.159.065-.261.1l-.126.037a1.15,1.15,0,0,1-.318.053.32.32,0,0,1-.2-.057c-.069-.061-.167-.265.139-.318a1.243,1.243,0,0,1,.171-.012,1.473,1.473,0,0,1,.688.155m-3.15-1.369c.012,0,.016-.008.02-.008s0,0,.008,0c-.02.016-.159.086-.159.086a2.2,2.2,0,0,1-.2.1.515.515,0,0,1-.163.053,1.058,1.058,0,0,0-.22.093l-.257.1a7.616,7.616,0,0,1,.97-.424m-.6.493a1.223,1.223,0,0,1,.313-.2.018.018,0,0,0,.012,0s0,0,.008,0,0,0-.021.024c-.032.029-.069.057-.1.085a.689.689,0,0,1-.053.053.215.215,0,0,1-.033.024s-.142.086-.159.089c.049-.069.049-.069.033-.081m-.921.2c.016-.012.126-.061.171-.082.008,0,.012,0,.017,0h.008a.674.674,0,0,1-.131.094.256.256,0,0,1-.093.033h0c-.008,0,.012-.029.032-.041m.872-.347c.012,0,.028,0,.041-.008-.008.008-.021.012-.029.02a1.763,1.763,0,0,1-.2.086,1.451,1.451,0,0,0-.2.094.013.013,0,0,1,.008,0h0a.076.076,0,0,0-.008.029,5.185,5.185,0,0,1-.661.3,3.66,3.66,0,0,1,1.047-.526m-.326.6a.693.693,0,0,1-.35.159c-.021,0-.028,0-.028,0s0-.012.016-.024.2-.163.216-.176a1.637,1.637,0,0,1,.2-.1.119.119,0,0,1,.045-.012h0c.032.008.048.049-.106.155m-1.08.025a.087.087,0,0,1,.032-.008h.009a.278.278,0,0,1-.09.078l-1.165.664c.016-.021.016-.021.362-.237-.342.167-.635.412-.982.566a.076.076,0,0,0,.02-.016c-.151.074-.261.216-.436.236a21.56,21.56,0,0,1,2.249-1.283m-.143.179v0a.332.332,0,0,1-.061.041.792.792,0,0,1-.236.114s0,0-.008,0a1.546,1.546,0,0,1,.289-.151s.008,0,.016,0m-1.32.713v0c-.664.436-.7.436-.726.436.029-.04.648-.4.726-.44m-.734.66a9.223,9.223,0,0,0,.941-.5,1.966,1.966,0,0,0-.3.13c-.163.09-.167.09-.183.09.094-.073.22-.114.29-.224l-.11.061-.179.1c-.077.045-.142.078-.191.106a.88.88,0,0,1-.085.049.859.859,0,0,0-.078.041.079.079,0,0,0-.02.012.061.061,0,0,1-.017,0h0c.011-.2,1.426-.88,1.438-.884.1.114-.143.159-.216.24l-.012.012a.4.4,0,0,0-.04.045l.012.012c.526-.122.62-.3.636-.371.021-.1.713-.452.717-.456h.025c-.2.212-.448.378-.656.587.167-.1.313-.232.485-.326a.388.388,0,0,1,.155-.044h.012c-.012.02-.021.033-.127.106,0,0-.558.392-.7.465a4.67,4.67,0,0,1-.579.224s-.305.131-.9.469a1.386,1.386,0,0,1-.35.163h0c-.053,0-.053-.065.049-.11m2.359-.954a1.582,1.582,0,0,1-.375.172v0a1.706,1.706,0,0,1,.293-.191.688.688,0,0,1,.094-.036c.008,0,.016,0,.029,0h0c.029,0-.008.037-.045.065m-5.876,3.272c1.931-1.589,1.931-1.589,2.371-1.772l.041-.012a.031.031,0,0,1,.016.008c-.016.061-.016.061-.106.138a1.292,1.292,0,0,1,.322-.167.033.033,0,0,1,.008.021c-.1.191-.1.191-.184.252-.35.257-.733.465-1.092.709-.2.139-.367.31-.562.444a.089.089,0,0,1-.045.016s-.008-.008-.008-.012a6.974,6.974,0,0,1-1.182.921.042.042,0,0,0-.02-.008,1.375,1.375,0,0,1,.44-.538m2.905.012h-.057a.792.792,0,0,0-.44.192.47.47,0,0,0-.065.061.242.242,0,0,0-.074.1c.069-.036.122-.065.163-.085l.122-.065a.173.173,0,0,1,.049-.012h.016a.112.112,0,0,1-.016.021,2.621,2.621,0,0,1-.33.338,1.186,1.186,0,0,1-.338.147,2,2,0,0,1-.411-.123.922.922,0,0,1,.053-.106.032.032,0,0,1-.02-.012,1.309,1.309,0,0,0-.342.236,5.7,5.7,0,0,1-.958.587,2.963,2.963,0,0,1-.648.265c.061-.11.175-.18.22-.3,0,0-.008-.012-.013-.016h-.008c-.085,0-.155.065-.236.065-.012,0-.025,0-.037,0-.163-.041-.073-.444.835-.717a2.228,2.228,0,0,0,.706-.326.32.32,0,0,1-.086.008c-.082,0-.159-.016-.237-.016a.293.293,0,0,0-.085.009c-.191.04-.35.171-.542.208a.026.026,0,0,1-.016,0,.1.1,0,0,1-.049-.012c0-.049.017-.09.358-.3.208-.127.208-.127.245-.183a.507.507,0,0,0-.069-.037c-.041-.208,1.695-1.333,1.829-1.345-.151.159-.367.24-.5.424.211-.081.378-.253.6-.322l.016.016c-.041.082-.118.127-.167.2a2.693,2.693,0,0,0,.452-.212c.008.008.02.016.028.025-.049.114-.216.167-.175.33a6.585,6.585,0,0,0,.961-.913s.008,0,.012,0a.319.319,0,0,1,.012.036.451.451,0,0,1,.106.033,9.985,9.985,0,0,1-.794,1.075c-.1.114-.024.31.155.412.029.143-.143.3-.147.3-.02.02-.037.024-.081.024m1.247.1a1.314,1.314,0,0,1-.668.281.854.854,0,0,1-.147.02c-.008,0-.016,0-.016,0-.049-.016-.041-.073-.077-.1a.041.041,0,0,0-.033-.012.781.781,0,0,0-.1.02c-.012,0-.024,0-.037,0a.21.21,0,0,1-.061.012.015.015,0,0,1-.012,0l0,0c.012-.04.094-.089.367-.256a5.485,5.485,0,0,0,.427-.379.517.517,0,0,1,.077-.045l.016,0a.4.4,0,0,1,.191.159s.13.244.078.309m-.073-2.029a.014.014,0,0,1-.009,0c-.037,0,0-.073.012-.1.024-.049.024-.053.016-.069a.033.033,0,0,0-.02,0c-.016,0-.037,0-.053,0h0a.9.9,0,0,1,.444-.249.213.213,0,0,1,.073-.012h0c.053,0,.025.049-.1.159a2.076,2.076,0,0,1-.367.269m1.849-.64c-.183.127-.395.212-.583.339a1.372,1.372,0,0,1,.286-.078c.089,0-.049.273-.1.322l-.041.041c-.033.029-.069.057-.114.089-.021.016-.045.033-.069.049-.044.033-.1.069-.151.1a2.087,2.087,0,0,1-.688.326.061.061,0,0,1-.041-.012.069.069,0,0,1-.009-.029c-.008-.053.025-.1.025-.151a.3.3,0,0,0-.025-.081c-.012-.069-.049-.13-.069-.2a.071.071,0,0,1,.008-.028.933.933,0,0,1,.383-.245c0,.078-.114.11-.09.2h.012a.081.081,0,0,0,.049-.016,3.391,3.391,0,0,0,.42-.314c.012-.016.029-.044-.029-.085a.13.13,0,0,0-.053-.012h-.029a.12.12,0,0,1-.037,0s0-.008,0-.008a2.184,2.184,0,0,1,.688-.35l.355-.074c.012,0,.028,0,.041,0a.1.1,0,0,1,.033,0,.045.045,0,0,1,.02,0,.064.064,0,0,1,.049.016c0,.012-.236.212-.241.216m.746-.892c-.142.057-.273.106-.277.106l-.008-.008c.033-.1.432-.318.583-.4-.082.028-.151.049-.208.069l-.106.033c-.167.057-.171.053-.191.049,0-.008,0-.008.02-.053a.034.034,0,0,0-.02,0c-.012,0-.029.008-.045.008a.016.016,0,0,1-.012,0,3.384,3.384,0,0,0,.51-.237v-.016a.14.14,0,0,1-.045,0,.418.418,0,0,1,.256-.143h.012a.159.159,0,0,1-.02.061,1.185,1.185,0,0,0-.049.126c.094-.073.134-.1.159-.126a.059.059,0,0,1,.016-.016.056.056,0,0,1,.012-.016.064.064,0,0,0,.012-.016.281.281,0,0,0,.041-.061l.037-.061a.132.132,0,0,1,.016-.012c.045-.029.517-.167.521-.167a.113.113,0,0,1,.033,0,.045.045,0,0,1,.02,0c-.008.02-.016.024-.094.089-.367.3-.367.3-.505.432,0,0,0,0,0-.008a.059.059,0,0,0,0-.045,2.364,2.364,0,0,1-.35.289c-.033.02-.183.078-.326.13m1.055-.212a.669.669,0,0,1-.395.171.193.193,0,0,1-.09-.02c-.1-.061-.077-.077-.012-.122a4.774,4.774,0,0,1,.677-.346c.012,0,.028,0,.041,0,.1.008-.114.228-.22.322m6.638,2.82a.324.324,0,0,1-.016.127c0,.012-.46,1.173-.762,1.23h-.02c-.105,0-.22-.146-.325-.289,0,0-.094-.118-.216-.245l-.057-.057c-.146-.151-.318-.3-.428-.3h-.012c-.009,0-.714.224-.566.644.175.505.758.46,1.067.786.147.151-.155.823-.334.88h-.013a.294.294,0,0,1-.122-.065,1.857,1.857,0,0,0-1.052-.346,6.364,6.364,0,0,0,.758.688c.082.041.082.041.1.09a.779.779,0,0,1-.334.053,4.825,4.825,0,0,1-1.809-.392c.379-.142.379-.142.456-.22-.069-.033-.134-.061-.2-.085l-.313-.134a1.368,1.368,0,0,0-.49-.131,1.589,1.589,0,0,0-.472.114,2.735,2.735,0,0,1-.815.187.276.276,0,0,1-.179-.044.339.339,0,0,1,.123-.408,6.074,6.074,0,0,1,1.193-.293c1.316-.4,1.41-1.341,1.41-1.349,0-.42-.444-.4-.635-.624-.151-.183-.22-.42-.383-.594a4.492,4.492,0,0,0-.424-.326c-.044.078-.114.192-.591.245-.558.061-.542.13-.514.236a.891.891,0,0,1-.118.041c-.037.008-.078.02-.126.033a6.024,6.024,0,0,1-.632.1c-.069.008-.135.012-.2.016s-.13.008-.2.008a1.94,1.94,0,0,1-.318-.024.964.964,0,0,1-.131-.033.335.335,0,0,1-.1-.049c-.375-.257,1.622-1.928,2.29-2.086a3.78,3.78,0,0,1,.55-.065.533.533,0,0,1,.159.02,1.739,1.739,0,0,0,.069.619h.021a.125.125,0,0,0,.036,0,.378.378,0,0,1,.053-.012c.016-.008.033-.012.053-.02s.069-.025.118-.045c.033-.012.074-.028.122-.044a3.965,3.965,0,0,1,1-.29h.032c.237.02.212.3.387.387a.592.592,0,0,0,.265.045h.106c.045,0,.094,0,.139.008a2.552,2.552,0,0,1,1.178.961c.008.061-.11.114-.343.216a3.053,3.053,0,0,0-.656.334Zm-5.033.469c.082-.2.522-.313.526-.313a.137.137,0,0,1,.04,0,.091.091,0,0,1,.078.029c.029.024.033.078.016.155a.564.564,0,0,1-.033.1,1.953,1.953,0,0,1-.175.343c-.021.029-.041.053-.061.077a.2.2,0,0,1-.13.078.077.077,0,0,1-.049-.016c-.073-.045-.257-.338-.212-.448m6.952-6.915c-.073.02-1.377.428-1.548.481.012,0,.024,0,.036,0a.292.292,0,0,1,.114-.008,4.3,4.3,0,0,1-1.161.387l.036.012c-.009.057-.257.326-.966.5a2.855,2.855,0,0,0-.7.444.908.908,0,0,1,.089.021c.065.187-.631.538-.921.538a.219.219,0,0,1-.053,0c.081-.061.081-.061.106-.127a.662.662,0,0,0-.155-.016,1.264,1.264,0,0,0-.436.1,2.859,2.859,0,0,1-.314.114.841.841,0,0,1-.105.029l-.127.024a2.38,2.38,0,0,1-.416.061.129.129,0,0,1-.041,0,.12.12,0,0,1-.02-.029c.22-.22.545-.236.8-.4.012-.082.036-.249.476-.261a.121.121,0,0,0,.1.049,1.561,1.561,0,0,0,.595-.24,1.705,1.705,0,0,1-.481.142c0-.008.008-.024.012-.033-.065-.041-.147-.029-.22-.061a1.446,1.446,0,0,1,.183-.1c.041-.024.085-.045.134-.069a2.014,2.014,0,0,1,.717-.232.352.352,0,0,1,.093.012.638.638,0,0,0,.155-.326.45.45,0,0,1,.224-.1,14.548,14.548,0,0,0,1.707-.5c-.309.081-1.133.305-1.406.371.1-.037.2-.069.3-.11-.09.025-.163.041-.224.057a1.615,1.615,0,0,1-.318.065.116.116,0,0,1-.069-.021,1.518,1.518,0,0,1,.473-.2c.077-.024.159-.044.24-.069a5.532,5.532,0,0,1,.734-.163h.008c.049,0,.085.008.118.008a.421.421,0,0,0,.143-.025.15.15,0,0,1-.057-.044c.309-.118,1.736-.363,1.752-.367s.6-.074.953-.074c-.367.094-.746.151-1.113.249.143-.012.167-.016.55-.069" transform="translate(-986.289 -265.061)" fill="#018689"/>
      <path id="Path_167" data-name="Path 167" d="M1239.144,269.681q0-9.464,0-18.929c-.012-9.159-.048-18.319-.049-27.479,0-14.972,7.409-26.043,21.275-31.593,3.071-1.229,6.3-2.065,9.459-3.075.889-.285,1.605-.263,1.768.925,1.526,11.138.984,21.881-6.421,31.138-4.188,5.234-9.832,8.454-16.015,10.8-3.809,1.445-3.3.822-3.313,4.683-.042,11.273,0,22.547-.084,33.82-.117,16.428-.253,32.857-.506,49.283a73.337,73.337,0,0,1-.984,13.367c-2.936,14.491-16.842,24.581-31.651,23.355a29.411,29.411,0,0,1-26.8-24.183c-2.6-13.853,6.833-28.178,20.268-30.783,11.522-2.234,23.319,5.307,25.571,16.711,2.427,12.293-7.809,23.762-20.549,20.714-2.639-.631-5.114-2.414-7.359-4.076-1.88-1.392-1.751-3.226-.263-4.756,1.326-1.364,3.033-1.424,4.7.048,7.371,6.517,15.581.69,16.9-5.706,1.143-5.533-.716-10.065-5.219-13.4a16.176,16.176,0,0,0-23.133,3.387c-5.058,6.885-6.262,14.547-2.621,22.486,3.352,7.308,9.417,11.305,17.218,12.449,8.441,1.238,15.87-1.1,21.8-7.416a20.66,20.66,0,0,0,5.423-13.717c.252-5.9.328-11.8.375-17.708.087-11.136.087-22.273.147-33.41.017-3.131.055-3.13-3.18-3.258a46.01,46.01,0,0,1-19.223-4.709c-8.572-4.34-13.444-11.668-15.812-20.694-1.007-3.837-1.228-7.882-1.771-11.837-.138-1,.123-1.732,1.4-1.656,9.426.566,18.478,2.316,26.021,8.542,5.973,4.931,9.043,11.574,10.725,18.953.583,2.559,1,5.155,1.5,7.735l.411-.016" transform="translate(-1073.398 -188.455)" fill="#018689"/>
      <path id="Path_168" data-name="Path 168" d="M1077.814,384.1c-3.459,0-6.549.045-9.629-.057-.432-.012-.966-.692-1.23-1.185-4.49-8.272-13.793-12.078-22.912-11.2v-7.566a43.444,43.444,0,0,1,5.818.074c12.179.945,21.3,6.588,26.971,17.541.327.636.547,1.325.983,2.4" transform="translate(-1011.557 -265.053)" fill="#018689"/>
      <path id="Path_169" data-name="Path 169" d="M1055.533,457.338a35.746,35.746,0,0,1-11.49,1.027v-7.82c7.64.7,14.477-1.035,20.076-6.654,3.9-3.919,5.746-8.789,6.67-14.111.273-1.573-.717-1.63-1.821-1.634-7.127-.029-7.553-.061-14.683-.089-.746,0-1.491-.029-2.237-.009a1.833,1.833,0,0,1-1.3-.358v-5.908a2.534,2.534,0,0,1,1.654-.387c6.043.057,5.385.024,11.427.02q7.126,0,14.258-.008c1.068,0,1.907-.008,2,1.541.986,15.94-9.376,30.507-24.554,34.39" transform="translate(-1011.557 -290.154)" fill="#018689"/>
      <path id="Path_170" data-name="Path 170" d="M1423.136,397.12c2.16-1.715,4.1-3.79,6.479-5.052,11.482-6.1,31.613-2.492,32.359,17.783.389,10.579.067,21.183.137,31.775.01,1.588-.481,2.231-2.087,2.123a33.294,33.294,0,0,0-4.275,0c-1.593.1-2.109-.516-2.1-2.123.066-8.487.1-16.976-.01-25.463a40.494,40.494,0,0,0-.843-9.073c-1.672-6.818-7.322-10.52-15.1-10.356-7.071.149-12.559,4.413-14,11.053a31.874,31.874,0,0,0-.756,6.434q-.124,13.647-.005,27.3c.012,1.656-.443,2.371-2.164,2.239a31.448,31.448,0,0,0-4.275,0c-1.633.1-2.29-.476-2.285-2.206.047-15.957.018-31.914.029-47.87,0-3.281.038-3.281,3.4-3.282,1.154,0,2.314.073,3.461-.02,1.467-.12,1.9.517,1.829,1.9-.078,1.554.024,3.117.065,4.676,0,.1.156.189.139.17" transform="translate(-1173.512 -276.146)" fill="#018689"/>
      <path id="Path_171" data-name="Path 171" d="M1307.389,414.829c-.16-12.4,8.647-24.247,20.44-26.517,11.527-2.22,23.541,5.4,25.812,16.71,2.515,12.526-8.115,23.494-20.4,20.717-2.823-.638-5.416-2.641-7.889-4.342-1.434-.987-1.472-2.666-.245-4.129a3.128,3.128,0,0,1,4.5-.753,7.6,7.6,0,0,1,.644.5c3.287,2.76,6.868,3.825,10.9,1.722a11.109,11.109,0,0,0,6.245-10.023c.244-6.433-5.267-12.56-12.1-13.861-12.162-2.317-20.156,7.706-21.059,17.9-1.5,16.969,15.077,26.962,29.456,22.857a24.338,24.338,0,0,0,10.539-5.9c1.975-1.918,2.823-2.16,4.194-.949a3.687,3.687,0,0,1,.09,5.436,36.209,36.209,0,0,1-6.393,4.986c-14.857,8.5-32.686,3.676-41.253-11.118a26.128,26.128,0,0,1-3.475-13.237" transform="translate(-1126.774 -275.511)" fill="#018689"/>
      <path id="Path_172" data-name="Path 172" d="M1138.541,398.869c.839-1.076,1.324-1.675,1.785-2.292,3.317-4.442,7.889-6.433,13.284-6.9,1.5-.128,2.123.352,2.044,1.9-.1,1.963.463,4.138-.208,5.85-.888,2.266-3.458.881-5.229,1.155-8.185,1.27-11.646,6.892-11.81,15.082-.184,9.227-.1,18.461,0,27.691.02,1.957-.547,2.71-2.517,2.524-1.48-.14-3,.091-4.468-.113-.546-.076-1.041-.874-1.45-1.423-.164-.22-.041-.659-.041-1q0-24.027,0-48.054c0-2.7.02-2.7,2.692-2.717,5.693-.035,5.689-.035,5.752,5.745.007.642.083,1.282.169,2.548" transform="translate(-1049.114 -276.27)" fill="#018689"/>
      <path id="Path_173" data-name="Path 173" d="M1302.926,557.9h150.023v-54.17H1302.926Zm21.776-12.225h-8.633V514.628h8.633Zm45.581,0h-8.632V528.547l-5.856,17.129h-7.222l-5.9-17.266v17.266h-8.633v-31.05h10.437l7.8,20.169,7.616-20.169h10.393Zm35.828-7.534a14.22,14.22,0,0,1-5.681,5.527,17.5,17.5,0,0,1-8.524,2.007h-12.285v-31.05h12.285a17.969,17.969,0,0,1,8.568,1.963,13.8,13.8,0,0,1,5.659,5.479,16.2,16.2,0,0,1,1.979,8.058,15.934,15.934,0,0,1-2,8.015m32.191,3.084a9.537,9.537,0,0,1-4.008,3.482,13.967,13.967,0,0,1-6.189,1.274,14.56,14.56,0,0,1-8.9-2.575,9.309,9.309,0,0,1-3.745-7.375h9.207a3.425,3.425,0,0,0,.969,2.378,3.5,3.5,0,0,0,4.116.153,1.971,1.971,0,0,0,.771-1.651,2.349,2.349,0,0,0-1.274-2.115,22.9,22.9,0,0,0-4.144-1.673,37.356,37.356,0,0,1-4.91-1.957,9.468,9.468,0,0,1-3.259-2.778,7.693,7.693,0,0,1-1.388-4.779,8.738,8.738,0,0,1,1.5-5.128,9.292,9.292,0,0,1,4.139-3.236,15.5,15.5,0,0,1,5.992-1.1,13.669,13.669,0,0,1,8.655,2.531,9.118,9.118,0,0,1,3.455,7.112h-9.382a2.747,2.747,0,0,0-.858-2.115,3.075,3.075,0,0,0-2.088-.705,2.225,2.225,0,0,0-1.586.574,2.1,2.1,0,0,0-.618,1.629,2,2,0,0,0,.684,1.52,6.125,6.125,0,0,0,1.695,1.1c.672.306,1.672.7,3,1.164a37.422,37.422,0,0,1,4.866,2.006,10.009,10.009,0,0,1,3.3,2.772,7.151,7.151,0,0,1,1.389,4.516,9.146,9.146,0,0,1-1.389,4.975" transform="translate(-1002.091 -390.279)" fill="#018689"/>
      <path id="Path_174" data-name="Path 174" d="M1427.075,536.1a7.749,7.749,0,0,1-2.154,5.861,8.259,8.259,0,0,1-5.949,2.066h-3V528.093h3a8.2,8.2,0,0,1,5.949,2.089,7.866,7.866,0,0,1,2.154,5.921" transform="translate(-1029.819 -396.254)" fill="#018689"/>
    </g>
  </g>
</svg>
