<svg xmlns="http://www.w3.org/2000/svg" width="1261.618" height="769.547" viewBox="0 0 1261.618 769.547">
  <g id="Group_108" data-name="Group 108" transform="translate(-364.304 -3211.015)">
    <path id="Path_105" data-name="Path 105" d="M311.458,242.018a239.469,239.469,0,0,1-36.772-127.9" transform="translate(466.959 3217.209) rotate(1)" fill="none" stroke="#fe9700" stroke-width="6"/>
    <path id="Path_106" data-name="Path 106" d="M396.771,259.758a241.564,241.564,0,0,1-106.753-92.312" transform="translate(487.094 3292.146) rotate(1)" fill="none" stroke="#25c5d9" stroke-width="6"/>
    <path id="Path_107" data-name="Path 107" d="M529.981,205.69A239.758,239.758,0,0,1,431.6,226.659a239.748,239.748,0,0,1-97.068-20.384" transform="translate(548.395 3346.704) rotate(1)" fill="none" stroke="#42a4f5" stroke-width="6"/>
    <path id="Path_108" data-name="Path 108" d="M519.565,168.681a241.556,241.556,0,0,1-103.544,88.763" transform="translate(663.241 3296.947) rotate(1)" fill="none" stroke="#eb407a" stroke-width="5"/>
    <path id="Path_109" data-name="Path 109" d="M497.86,114.119a239.486,239.486,0,0,1-38.667,130.864" transform="translate(724.935 3221.713) rotate(1)" fill="none" stroke="#673bb6" stroke-width="6"/>
    <path id="Path_111" data-name="Path 111" d="M490.28,120.745a8.374,8.374,0,1,1-8.376-8.376A8.378,8.378,0,0,1,490.28,120.745Z" transform="translate(721.983 3336.136) rotate(-14)" fill="#fff" stroke="#673bb6" stroke-width="1"/>
    <path id="Path_112" data-name="Path 112" d="M286.877,118.951a7.436,7.436,0,1,1-7.436-7.436,7.436,7.436,0,0,1,7.436,7.436" transform="translate(440.486 3287.878) rotate(-14)" fill="#fff" stroke="#fe9700" stroke-width="1"/>
    <circle id="Ellipse_5" data-name="Ellipse 5" cx="8.577" cy="8.577" r="8.577" transform="matrix(0.242, -0.97, 0.97, 0.242, 1169.334, 3480.127)" fill="#fff" stroke="#eb407a" stroke-width="1"/>
    <path id="Path_115" data-name="Path 115" d="M302.312,173.4a7.2,7.2,0,1,1-7.2-7.2A7.2,7.2,0,0,1,302.312,173.4Z" transform="translate(484.171 3290.35) rotate(1)" fill="#fff" stroke="#fe9700" stroke-width="1.5"/>
    <path id="Path_117" data-name="Path 117" d="M433.287,211.994a10.806,10.806,0,1,1-10.8-10.8A10.8,10.8,0,0,1,433.287,211.994Z" transform="translate(656.371 3342.294) rotate(1)" fill="#fff" stroke="#42a4f5" stroke-width="1.26"/>
    <path id="Path_119" data-name="Path 119" d="M348.476,210.811a8.777,8.777,0,1,1-8.776-8.776A8.775,8.775,0,0,1,348.476,210.811Z" transform="translate(543.442 3341.506) rotate(1)" fill="#fff" stroke="#25c5d9" stroke-width="1.624"/>
    <path id="Path_125" data-name="Path 125" d="M475.242,255.222a319.545,319.545,0,0,1-69.527-7.62,27.2,27.2,0,0,0-31.39,17.367L304.963,456.28a27.238,27.238,0,0,0,18.312,35.58,576.04,576.04,0,0,0,151.968,20.3,576.022,576.022,0,0,0,151.965-20.3,27.237,27.237,0,0,0,18.312-35.58L576.155,264.971A27.2,27.2,0,0,0,544.767,247.6a319.686,319.686,0,0,1-69.525,7.617" transform="translate(517.164 3290.836) rotate(15)" fill="#d8dbe8"/>
    <path id="Path_126" data-name="Path 126" d="M365.541,203.34,194.388,313.3a27.3,27.3,0,0,0-6.929,39.547A577.97,577.97,0,0,0,405.52,527.114a27.3,27.3,0,0,0,37.046-15.506L511.927,320.3a27.354,27.354,0,0,0-13.27-33.6,320.22,320.22,0,0,1-97.39-77.838,27.364,27.364,0,0,0-35.727-5.521" transform="translate(370.434 3182.132) rotate(15)" fill="#d8dbe8"/>
    <path id="Path_127" data-name="Path 127" d="M431.48,320.3l69.362,191.306a27.306,27.306,0,0,0,37.046,15.508,578,578,0,0,0,218.06-174.268,27.3,27.3,0,0,0-6.929-39.547L577.869,203.34a27.367,27.367,0,0,0-35.729,5.521A320.182,320.182,0,0,1,444.75,286.7a27.357,27.357,0,0,0-13.27,33.6" transform="translate(705.424 3271.893) rotate(15)" fill="#d8dbe8"/>
    <path id="Path_128" data-name="Path 128" d="M524.708,148.548a316.685,316.685,0,0,1-27.9,95.2,27.394,27.394,0,0,0,9.8,34.866L677.774,388.588a27.273,27.273,0,0,0,38.785-10.023A572.251,572.251,0,0,0,782.4,154.058a27.3,27.3,0,0,0-27.21-29.472H551.779a27.344,27.344,0,0,0-27.071,23.962" transform="translate(819.185 3194.602) rotate(15)" fill="#d8dbe8"/>
    <path id="Path_129" data-name="Path 129" d="M366.355,124.585H162.947a27.3,27.3,0,0,0-27.21,29.472,572.225,572.225,0,0,0,65.836,224.507,27.271,27.271,0,0,0,38.785,10.023L411.525,278.613a27.4,27.4,0,0,0,9.8-34.866,316.683,316.683,0,0,1-27.9-95.2,27.346,27.346,0,0,0-27.071-23.962" transform="translate(334.976 3064.857) rotate(15)" fill="#d8dbe8"/>
    <path id="Path_132" data-name="Path 132" d="M475.242,252.222a319.545,319.545,0,0,1-69.527-7.62,27.2,27.2,0,0,0-31.39,17.367L304.963,453.28a27.238,27.238,0,0,0,18.312,35.58,576.04,576.04,0,0,0,151.968,20.3,576.022,576.022,0,0,0,151.965-20.3,27.237,27.237,0,0,0,18.312-35.58L576.155,261.971A27.194,27.194,0,0,0,544.767,244.6a319.69,319.69,0,0,1-69.525,7.617" transform="translate(518.25 3286.783) rotate(15)" fill="#fff"/>
    <path id="Path_133" data-name="Path 133" d="M365.541,200.34,194.388,310.3a27.3,27.3,0,0,0-6.929,39.547A577.97,577.97,0,0,0,405.52,524.114a27.3,27.3,0,0,0,37.046-15.506L511.927,317.3a27.354,27.354,0,0,0-13.27-33.6,320.219,320.219,0,0,1-97.39-77.838,27.364,27.364,0,0,0-35.727-5.521" transform="translate(371.52 3178.079) rotate(15)" fill="#fff"/>
    <path id="Path_134" data-name="Path 134" d="M431.48,317.3l69.362,191.306a27.306,27.306,0,0,0,37.046,15.508,578,578,0,0,0,218.06-174.268,27.3,27.3,0,0,0-6.929-39.547L577.869,200.34a27.367,27.367,0,0,0-35.729,5.521A320.181,320.181,0,0,1,444.75,283.7a27.357,27.357,0,0,0-13.27,33.6" transform="translate(706.51 3267.84) rotate(15)" fill="#fff"/>
    <path id="Path_135" data-name="Path 135" d="M524.708,145.548a316.684,316.684,0,0,1-27.9,95.2,27.394,27.394,0,0,0,9.8,34.866L677.774,385.588a27.273,27.273,0,0,0,38.785-10.023A572.25,572.25,0,0,0,782.4,151.058a27.3,27.3,0,0,0-27.21-29.472H551.779a27.344,27.344,0,0,0-27.071,23.962" transform="translate(820.271 3190.549) rotate(15)" fill="#fff"/>
    <path id="Path_136" data-name="Path 136" d="M366.355,121.585H162.947a27.3,27.3,0,0,0-27.21,29.472,572.225,572.225,0,0,0,65.836,224.507,27.271,27.271,0,0,0,38.785,10.023L411.525,275.613a27.4,27.4,0,0,0,9.8-34.866,316.682,316.682,0,0,1-27.9-95.2,27.346,27.346,0,0,0-27.071-23.962" transform="translate(336.062 3060.805) rotate(15)" fill="#fff"/>
    <g id="Group_99" data-name="Group 99" transform="translate(69.792 185.072)">
      <path id="Path_139" data-name="Path 139" d="M219.637,146.19a20.408,20.408,0,0,1,.393,2.8c.036,5.84.019,11.68.019,17.849,2.7,0,5.348-.065,7.987.038a8.187,8.187,0,0,1,2.3.825,7.013,7.013,0,0,1-1.043,2.039c-5.931,5.619-11.934,11.165-17.866,16.784-1.142,1.082-1.964,1.108-3.113.019-5.984-5.665-12.033-11.26-18.017-16.923a6.278,6.278,0,0,1-.938-1.88,6.724,6.724,0,0,1,2.087-.861c2.588-.105,5.181-.041,7.987-.041,0-6.07-.017-11.961.019-17.849a20.412,20.412,0,0,1,.393-2.8Z" transform="translate(341.44 3217.184)" fill="#474a54"/>
      <path id="Path_140" data-name="Path 140" d="M201.713,163.722c-3.017,1.53-5.751,2.914-8.749,4.432.7.41,1.185.736,1.705,1,6.569,3.274,13.129,6.564,19.732,9.766a3.466,3.466,0,0,0,2.612.223c7.106-3.418,14.158-6.958,21.219-10.469a4.7,4.7,0,0,0,.652-.559l-8.658-4.382c1.729-1.624,3.219-3.118,4.833-4.459a2.035,2.035,0,0,1,1.772-.062c2.852,1.348,5.713,2.7,8.433,4.286a3.553,3.553,0,0,1,1.525,2.549q.162,13.822,0,27.649a3.456,3.456,0,0,1-1.569,2.521q-13.894,7.181-27.922,14.1a3.424,3.424,0,0,1-2.665,0q-14.013-6.936-27.913-14.107a3.677,3.677,0,0,1-1.626-2.71q-.184-13.617,0-27.236a3.785,3.785,0,0,1,1.578-2.739,88.289,88.289,0,0,1,8.435-4.276,2.423,2.423,0,0,1,2.075.317c1.5,1.192,2.84,2.581,4.538,4.171" transform="translate(335.338 3235.15)" fill="#474a54"/>
    </g>
    <text id="Data_collection" data-name="Data 
collection" transform="translate(631 3660.598)" fill="#474a54" font-size="20" font-family="Righteous-Regular, Righteous" letter-spacing="0.1em"><tspan x="-32" y="0">DATA </tspan><tspan x="-69" y="25">COLLECTION</tspan></text>
    <text id="Data_Analysis" data-name="Data 
Analysis" transform="translate(879.837 3839.661)" fill="#474a54" font-size="20" font-family="Righteous-Regular, Righteous" letter-spacing="0.1em"><tspan x="-32" y="0">DATA </tspan><tspan x="-53" y="25">ANALYSIS</tspan></text>
    <text id="Risk_assessment" data-name="Risk 
assessment" transform="translate(1178.842 3789.712)" fill="#474a54" font-size="20" font-family="Righteous-Regular, Righteous" letter-spacing="0.1em"><tspan x="-28" y="0">RISK </tspan><tspan x="-72" y="25">ASSESSMENT</tspan></text>
    <text id="Reporting" transform="translate(1385.359 3644.027)" fill="#474a54" font-size="20" font-family="Righteous-Regular, Righteous" letter-spacing="0.1em"><tspan x="-62" y="0">REPORTING</tspan></text>
    <text id="Regulatory_Consultation" data-name="Regulatory 
Consultation" transform="translate(546 3392)" fill="#474a54" font-size="20" font-family="Righteous-Regular, Righteous" letter-spacing="0.1em"><tspan x="-76" y="0">REGULATORY </tspan><tspan x="-84" y="25">CONSULTATION</tspan></text>
    <path id="Path_240" data-name="Path 240" d="M524.708,148.548a316.685,316.685,0,0,1-27.9,95.2,27.394,27.394,0,0,0,9.8,34.866L677.774,388.588a27.273,27.273,0,0,0,38.785-10.023A572.251,572.251,0,0,0,782.4,154.058a27.3,27.3,0,0,0-27.21-29.472H551.779a27.344,27.344,0,0,0-27.071,23.962" transform="translate(765.443 3313.854) rotate(-16)" fill="#d8dbe8"/>
    <path id="Path_241" data-name="Path 241" d="M524.708,145.548a316.684,316.684,0,0,1-27.9,95.2,27.394,27.394,0,0,0,9.8,34.866L677.774,385.588a27.273,27.273,0,0,0,38.785-10.023A572.25,572.25,0,0,0,782.4,151.058a27.3,27.3,0,0,0-27.21-29.472H551.779a27.344,27.344,0,0,0-27.071,23.962" transform="translate(764.286 3309.821) rotate(-16)" fill="#fff"/>
    <text id="Sustenance" transform="translate(1370.843 3398)" fill="#474a54" font-size="20" font-family="Righteous-Regular, Righteous" letter-spacing="0.1em"><tspan x="0" y="0">SUSTENANCE</tspan></text>
    <g id="Layer_x0020_1" transform="translate(1407.038 3288.458)">
      <path id="Path_244" data-name="Path 244" transform="translate(0.031 0)" fill="#474a54" fill-rule="evenodd"/>
      <path id="Path_245" data-name="Path 245" d="M1073.8,884.339h-26.335a1.459,1.459,0,0,1-1.468-1.422V848.406a1.446,1.446,0,0,1,1.468-1.406h26.381a1.435,1.435,0,0,1,1.422,1.406v34.511A1.458,1.458,0,0,1,1073.8,884.339Zm-4.7-28.839h-17a.981.981,0,1,1,0-1.963h17a.981.981,0,1,1,0,1.963Zm0,7.418h-17a1,1,0,0,1-.989-.989.983.983,0,0,1,.989-.974h17a.973.973,0,0,1,.989.974A.986.986,0,0,1,1069.1,862.918Zm0,7.4h-17a.983.983,0,0,1-.989-.974,1,1,0,0,1,.989-.989h17a.986.986,0,0,1,.989.989A.973.973,0,0,1,1069.1,870.321Zm0,7.418h-17a.981.981,0,1,1,0-1.963h17a.981.981,0,1,1,0,1.963Z" transform="translate(-1029.803 -833.91)" fill="#474a54" fill-rule="evenodd"/>
      <path id="Path_246" data-name="Path 246" transform="translate(0.031 0)" fill="#474a54" fill-rule="evenodd"/>
      <path id="Path_247" data-name="Path 247" d="M1418.8,1109.462h-26.32a1.484,1.484,0,0,1-1.484-1.484v-.294h22.471a3.275,3.275,0,0,0,3.292-3.246V1072h2.148a1.462,1.462,0,0,1,1.422,1.484v34.449A1.608,1.608,0,0,1,1418.8,1109.462Z" transform="translate(-1369.471 -1055.432)" fill="#474a54" fill-rule="evenodd"/>
      <path id="Path_248" data-name="Path 248" d="M18.771,229.485a.847.847,0,0,1-.386-.062,33.56,33.56,0,0,1,.062-61.757.952.952,0,1,1,.757,1.746,31.645,31.645,0,0,0,0,58.265.956.956,0,0,1,.495,1.267A1.059,1.059,0,0,1,18.771,229.485Zm25.408,0a.971.971,0,0,1-.386-1.855,31.6,31.6,0,0,0,0-58.218.952.952,0,1,1,.757-1.746,33.5,33.5,0,0,1,0,61.757A.784.784,0,0,1,44.179,229.485Z" transform="translate(2 -164.992)" fill="#474a54" fill-rule="evenodd"/>
      <path id="Path_249" data-name="Path 249" d="M2928.134,144.957a1.062,1.062,0,0,1-.881-.541L2923,135.7a.956.956,0,0,1,.062-.927.9.9,0,0,1,.757-.495l9.273-.495a.959.959,0,0,1,.047,1.916l-7.79.433,3.6,7.465a.922.922,0,0,1-.433,1.252A.534.534,0,0,1,2928.134,144.957Z" transform="translate(-2877.705 -131.712)" fill="#474a54" fill-rule="evenodd"/>
      <path id="Path_250" data-name="Path 250" d="M686.927,3493.49a.92.92,0,0,1-.927-.927.931.931,0,0,1,.927-.974l7.789-.386-3.647-7.465a.922.922,0,0,1,.433-1.252.9.9,0,0,1,1.252.433l4.266,8.778a.952.952,0,0,1-.062.927,1.058,1.058,0,0,1-.757.479Z" transform="translate(-675.367 -3428.565)" fill="#474a54" fill-rule="evenodd"/>
    </g>
    <g id="customer-support" transform="translate(507.446 3282.364)">
      <path id="Path_242" data-name="Path 242" d="M76.44,71.294c-1.787-5.317-8.907-8.645-13.984-10.876-1.989-.871-7.495-2.349-8.157-4.853A5.181,5.181,0,0,1,54.289,53a4.964,4.964,0,0,1-.938.093H50.044a4.784,4.784,0,1,1,0-9.569h3.308a4.771,4.771,0,0,1,2.965,1.03,21.286,21.286,0,0,0,3.508-.768,29.674,29.674,0,0,0,2.828-9.776c1.08-13.349-7.1-21.159-18.837-19.808-8.531.982-13.627,7.343-14.178,15.533a28.208,28.208,0,0,0,5.825,19.035c1.44,1.977,2.952,3.248,2.72,5.631-.27,2.817-3.282,3.6-5.437,4.468a62.246,62.246,0,0,0-6.6,3.3c-4.474,2.471-9.383,5.446-10.487,9.516C13.213,80.7,21.467,83.433,28.28,84.695a102.011,102.011,0,0,0,17.865,1.164c9.81,0,27.451-.393,30.3-7.767A12.281,12.281,0,0,0,76.44,71.294Z" transform="translate(-15.218 -6.022)" fill="#474a54"/>
      <path id="Path_243" data-name="Path 243" d="M55.869,45.932a2.5,2.5,0,0,0-2.092-1.138H50.47a2.492,2.492,0,1,0,0,4.984h3.308a2.472,2.472,0,0,0,2.2-1.347,22.368,22.368,0,0,0,11.439-3.852,4.108,4.108,0,0,0,2.236.661h.208a4.157,4.157,0,0,0,4.159-4.163v-8.31a4.145,4.145,0,0,0-2.37-3.747,25.177,25.177,0,0,0-50.3,0,4.143,4.143,0,0,0-2.372,3.747v8.31a4.158,4.158,0,0,0,4.155,4.163h.21A4.159,4.159,0,0,0,27.5,41.076v-8.31a4.149,4.149,0,0,0-2.314-3.719,21.342,21.342,0,0,1,42.623,0A4.151,4.151,0,0,0,65.5,32.766v8.31a4.181,4.181,0,0,0,.3,1.545A20.365,20.365,0,0,1,55.869,45.932Z" transform="translate(-15.642 -5)" fill="#474a54"/>
    </g>
    <path id="analytics" d="M24.434,50.825,40.739,36.554A5.757,5.757,0,1,1,51.9,34.394l12.887,4.512a5.759,5.759,0,0,1,7.12-1.335L86.764,24.877a5.754,5.754,0,1,1,2.694,3.153L74.6,40.724a5.757,5.757,0,1,1-11.184,2.095L50.53,38.307a5.758,5.758,0,0,1-7.061,1.366L27.164,53.943a5.756,5.756,0,1,1-2.73-3.118ZM87.816,40.09a2.6,2.6,0,0,0-2.6,2.6V95.735a2.6,2.6,0,0,0,2.6,2.6h8.759a2.6,2.6,0,0,0,2.6-2.6V42.689a2.6,2.6,0,0,0-2.6-2.6Zm-23.025,21.2a2.6,2.6,0,0,0-2.6,2.6V96.278a2.6,2.6,0,0,0,2.6,2.6h8.759a2.6,2.6,0,0,0,2.6-2.6V63.886a2.6,2.6,0,0,0-2.6-2.6Zm-23.024-7.61a2.6,2.6,0,0,0-2.6,2.6V96.821a2.6,2.6,0,0,0,2.6,2.6h8.759a2.6,2.6,0,0,0,2.6-2.6V56.276a2.6,2.6,0,0,0-2.6-2.6ZM18.743,76.05H27.5a2.6,2.6,0,0,1,2.6,2.6V97.365a2.6,2.6,0,0,1-2.6,2.6H18.743a2.6,2.6,0,0,1-2.6-2.6V78.65A2.6,2.6,0,0,1,18.743,76.05Z" transform="translate(817.525 3699.381)" fill="#474a54" fill-rule="evenodd"/>
    <path id="business-report" d="M101.46,59V2.913A2.92,2.92,0,0,0,98.547,0H57.779a2.92,2.92,0,0,0-2.913,2.913V59a2.92,2.92,0,0,0,2.913,2.913H98.547A2.921,2.921,0,0,0,101.46,59Zm2.383-49.427h4.281a2.921,2.921,0,0,1,2.913,2.913V68.58a2.921,2.921,0,0,1-2.913,2.913H67.355a2.921,2.921,0,0,1-2.913-2.913V64.3h34.1a5.3,5.3,0,0,0,5.3-5.3ZM81.331,17.986v-8.4a9.664,9.664,0,0,1,8.4,8.4Zm1.685,12.006a9.661,9.661,0,1,1-8.022-16.419V23.16a1.191,1.191,0,0,0,1.192,1.191h9.588a9.632,9.632,0,0,1-2.757,5.64ZM62.7,41.258H93.621a1.192,1.192,0,0,1,0,2.383H62.7a1.191,1.191,0,0,1,0-2.383Zm0,5.13H93.621a1.192,1.192,0,1,1,0,2.383H62.7a1.192,1.192,0,1,1,0-2.383Zm0,5.13H93.621a1.192,1.192,0,1,1,0,2.383H62.7a1.192,1.192,0,1,1,0-2.383ZM88.229,23.16A12.044,12.044,0,1,1,76.185,11.116a1.192,1.192,0,0,1,1.191,1.191v9.661h9.661A1.191,1.191,0,0,1,88.229,23.16Zm2.764-2.791H80.14a1.192,1.192,0,0,1-1.192-1.192V8.325A1.191,1.191,0,0,1,80.14,7.133,12.044,12.044,0,0,1,92.184,19.177,1.191,1.191,0,0,1,90.993,20.369Z" transform="translate(1302.408 3537.548)" fill="#474a54" fill-rule="evenodd"/>
    <g id="Icon" transform="translate(1143.28 3678.752)">
      <path id="Path_253" data-name="Path 253" d="M41.7,48.3H18.051a7.745,7.745,0,0,1-6.725-11.588L23.149,16.019a7.748,7.748,0,0,1,13.45,0L48.422,36.712A7.748,7.748,0,0,1,41.7,48.3ZM29.874,37.644A2.553,2.553,0,1,0,32.426,40.2,2.553,2.553,0,0,0,29.874,37.644ZM27.321,24.031v6.807a2.553,2.553,0,0,0,5.105,0V24.031a2.553,2.553,0,0,0-5.105,0Z" transform="translate(19.486 26.122)" fill="#474a54" fill-rule="evenodd"/>
      <path id="Path_254" data-name="Path 254" d="M29.515,74.422H11.555A9.36,9.36,0,0,1,2.2,65.063V10.609A9.36,9.36,0,0,1,11.555,1.25H40.1a9.368,9.368,0,0,1,6.616,2.74L59.747,17.021a9.368,9.368,0,0,1,2.74,6.616v22.85l-3.448-6.034a11.152,11.152,0,0,0-19.362,0L27.854,61.146a11.155,11.155,0,0,0,1.661,13.277Zm11.7-68.305v13a3.4,3.4,0,0,0,3.4,3.4h13a6.787,6.787,0,0,0-1.382-1.994L43.21,7.5a6.787,6.787,0,0,0-1.994-1.382ZM16.66,33.582H37.08a2.553,2.553,0,1,0,0-5.105H16.66a2.553,2.553,0,1,0,0,5.105Zm0,10.21H26.87a2.553,2.553,0,0,0,0-5.105H16.66a2.553,2.553,0,1,0,0,5.105Zm0-20.42H26.87a2.553,2.553,0,0,0,0-5.105H16.66a2.553,2.553,0,1,0,0,5.105Z" transform="translate(0)" fill="#474a54" fill-rule="evenodd"/>
    </g>
  </g>
</svg>
